<?xml version="1.0" standalone="no"?>
<!DOCTYPE svg PUBLIC "-//W3C//DTD SVG 1.1//EN" "http://www.w3.org/Graphics/SVG/1.1/DTD/svg11.dtd" >
<svg xmlns="http://www.w3.org/2000/svg" xmlns:xlink="http://www.w3.org/1999/xlink" version="1.1">
<metadata></metadata>
<defs>
<font id="tnl_effra_optheavy" horiz-adv-x="1148" >
<font-face units-per-em="2048" ascent="1638" descent="-410" />
<missing-glyph horiz-adv-x="328" />
<glyph horiz-adv-x="0" />
<glyph horiz-adv-x="0" />
<glyph unicode="&#xd;" horiz-adv-x="0" />
<glyph unicode=" "  horiz-adv-x="328" />
<glyph unicode="&#x09;" horiz-adv-x="328" />
<glyph unicode="&#xa0;" horiz-adv-x="328" />
<glyph unicode="!" horiz-adv-x="624" d="M122 1366h380q-6 -226 -20 -904h-338q-6 226 -22 904zM138 0v88v260h350v-348h-350z" />
<glyph unicode="&#x22;" horiz-adv-x="934" d="M86 822v136v408h314v-544h-314zM534 822v544h314v-544h-314z" />
<glyph unicode="#" horiz-adv-x="1460" d="M80 274v62v186h240l56 216h-168v248h236q22 76 84 304h270q-20 -76 -82 -304h228q22 76 84 304h272q-20 -76 -82 -304h162v-248h-230l-56 -216h156v-248h-224q-18 -68 -74 -274h-272q18 68 72 274h-228q-18 -68 -74 -274h-270q18 68 72 274h-172zM592 522h228l56 216 h-226q-16 -54 -58 -216z" />
<glyph unicode="$" horiz-adv-x="1178" d="M48 174q64 84 196 252q74 -66 174 -104t202 -38q66 0 104 32q40 30 40 84q0 30 -24 52q-26 24 -80 46q-56 22 -160 54q-204 66 -300 162q-96 98 -96 236q0 170 100 282q100 114 284 148v184h242v-182q204 -24 350 -148l-186 -240q-54 42 -130 68q-74 28 -140 28 q-172 0 -172 -116q0 -40 46 -68q44 -28 172 -64q236 -68 340 -168q106 -98 106 -252q0 -158 -104 -270q-102 -114 -282 -152v-212h-242v202q-132 14 -246 62q-112 46 -194 122z" />
<glyph unicode="%" horiz-adv-x="1894" d="M94 954q0 80 20 148q22 68 62 116q42 50 104 78q64 28 148 28t148 -28q62 -28 104 -78q42 -48 64 -116q20 -68 20 -148t-20 -148q-22 -68 -64 -118t-104 -78q-64 -28 -148 -28t-148 28q-62 28 -104 78q-40 50 -62 118q-20 68 -20 148zM336 954q0 -24 2 -54q4 -32 12 -60 q10 -26 28 -46q20 -18 50 -18t50 18q18 20 26 46q10 28 14 60q2 30 2 54t-2 56q-4 30 -14 58q-8 28 -26 46q-20 18 -50 18t-50 -18q-18 -18 -28 -46q-8 -28 -12 -58q-2 -32 -2 -56zM386 0q202 322 814 1290h292q-200 -322 -806 -1290h-300zM1128 352q0 80 20 148 q22 68 62 116q42 50 104 78q64 26 148 26t148 -26q64 -28 104 -78q44 -48 64 -116t20 -148t-20 -148t-64 -118q-40 -50 -104 -78t-148 -28t-148 28q-62 28 -104 78q-40 50 -62 118q-20 68 -20 148zM1370 352q0 -24 4 -56q2 -30 10 -58q10 -28 30 -46q18 -18 48 -18t50 18 q18 18 26 46q10 28 14 58q2 32 2 56t-2 56q-4 30 -14 56q-8 30 -26 48q-20 18 -50 18t-48 -18q-20 -18 -30 -48q-8 -26 -10 -56q-4 -32 -4 -56z" />
<glyph unicode="&#x26;" horiz-adv-x="1414" d="M58 374q0 128 64 238q66 108 194 180q-48 72 -58 128q-12 54 -12 102q0 80 32 148q34 70 92 120q60 54 142 84q82 28 180 28q130 0 236 -62q108 -62 168 -200q-84 -48 -250 -144q-20 50 -54 84t-88 34q-48 0 -82 -30t-34 -78q0 -36 20 -66q20 -32 44 -60 q96 -112 290 -340q42 42 88 92q46 52 98 112q76 -70 228 -208q-60 -64 -114 -122q-54 -56 -102 -102q90 -104 266 -312h-426q-20 24 -82 98q-56 -40 -106 -66q-50 -24 -98 -38q-44 -16 -90 -22q-44 -4 -92 -4q-92 0 -176 26q-82 26 -146 78q-60 52 -96 128t-36 174zM394 408 q0 -66 48 -102t108 -36q40 0 76 12q36 10 80 42q-70 84 -212 252q-54 -36 -78 -78q-22 -44 -22 -90z" />
<glyph unicode="'" horiz-adv-x="486" d="M86 822v136v408h314v-544h-314z" />
<glyph unicode="(" horiz-adv-x="710" d="M112 628q0 156 26 292q24 136 56 244q34 108 66 180q30 74 48 102h352q-8 -14 -40 -86q-30 -72 -64 -182t-62 -252t-28 -298q0 -154 28 -298q28 -142 62 -252t64 -182q32 -72 40 -86h-352q-18 28 -48 100q-32 74 -66 180q-32 108 -56 246q-26 138 -26 292z" />
<glyph unicode=")" horiz-adv-x="710" d="M52 -190q8 14 38 86t64 182t62 252q28 144 28 298q0 156 -28 298t-62 252t-64 182t-38 86h352q14 -28 46 -102q34 -72 66 -180t58 -244q24 -136 24 -292q0 -154 -24 -292q-26 -138 -58 -246q-32 -106 -66 -180q-32 -72 -46 -100h-352z" />
<glyph unicode="*" horiz-adv-x="670" d="M26 1128q30 12 124 50q-32 12 -124 50q20 32 78 134q24 -20 100 -76q-4 30 -18 122h156q-4 -30 -16 -124q26 18 100 74q20 -34 78 -134q-32 -12 -124 -44q32 -12 124 -48q-20 -34 -78 -134q-26 18 -102 76q4 -32 18 -126h-156q4 30 18 122q-24 -20 -100 -76 q-20 34 -78 134z" />
<glyph unicode="+" d="M166 512v270h268v278h278v-278h272v-270h-272v-274h-278v274h-268z" />
<glyph unicode="," horiz-adv-x="598" d="M108 0v94v278h384v-372q-42 -74 -170 -292h-212q32 72 128 292h-130z" />
<glyph unicode="-" horiz-adv-x="922" d="M122 408v332h676v-332h-676z" />
<glyph unicode="." horiz-adv-x="598" d="M112 0v370h374v-370h-374z" />
<glyph unicode="/" horiz-adv-x="964" d="M34 -32q138 358 546 1434h350q-134 -358 -538 -1434h-358z" />
<glyph unicode="0" horiz-adv-x="1346" d="M82 684q0 214 70 374q72 162 204 252q136 92 316 92q176 0 308 -86q134 -86 208 -246q76 -162 76 -384q0 -212 -72 -374t-206 -254q-134 -90 -314 -90q-174 0 -308 86q-132 86 -208 248q-74 162 -74 382zM434 684q0 -196 60 -298q62 -104 178 -104q118 0 178 104 q62 102 62 300q0 196 -62 300q-60 102 -178 102q-116 0 -178 -102q-60 -104 -60 -302z" />
<glyph unicode="1" horiz-adv-x="986" d="M28 1128q112 60 448 238h306v-1366h-356v984q-64 -34 -258 -136q-34 70 -140 280z" />
<glyph unicode="2" horiz-adv-x="1130" d="M50 1116q100 150 226 218t302 68q134 0 242 -48q106 -50 166 -142q60 -90 60 -210q0 -128 -72 -232q-72 -106 -238 -222q-116 -80 -162 -118t-66 -68q-18 -26 -20 -54h572v-308h-968v192q0 148 82 264q80 116 272 246q146 98 200 156q52 58 52 118q0 50 -38 82 q-38 34 -94 34q-80 0 -142 -40q-62 -38 -118 -122q-86 62 -256 186z" />
<glyph unicode="3" horiz-adv-x="1156" d="M16 146q60 82 180 250q72 -64 140 -90q68 -28 156 -28q100 0 158 46t58 126q0 82 -54 130q-56 46 -152 46q-82 0 -142 -24q-26 44 -78 130q86 82 342 326h-500v308h884v-250q-68 -74 -274 -294q148 -38 232 -142q82 -104 82 -258q0 -126 -66 -228t-190 -166 q-122 -60 -276 -60q-304 0 -500 178z" />
<glyph unicode="4" horiz-adv-x="1252" d="M46 232v258q152 218 608 876h344v-844h184v-290h-184v-232h-318v232h-634zM372 522h308v438q-76 -110 -308 -438z" />
<glyph unicode="5" horiz-adv-x="1136" d="M24 146q60 82 180 250q128 -118 278 -118q94 0 150 48q58 48 58 128q0 84 -58 136q-56 54 -148 54q-54 0 -110 -12t-94 -30q-48 36 -146 108q24 164 102 656h750v-308h-514q-8 -46 -30 -190q14 4 58 8q42 4 74 4q204 0 330 -120q126 -118 126 -312q0 -136 -64 -246 q-62 -108 -182 -172q-118 -62 -274 -62q-288 0 -486 178z" />
<glyph unicode="6" horiz-adv-x="1198" d="M82 626q0 232 74 408q76 174 216 270q144 98 338 98q92 0 170 -18t168 -58l-114 -264q-50 24 -108 36q-60 14 -114 14q-114 0 -186 -78q-72 -80 -94 -232q68 54 138 80q68 26 154 26q120 0 212 -56t144 -158t52 -238q0 -138 -62 -250q-62 -110 -182 -176 q-116 -62 -270 -62q-250 0 -392 174q-144 176 -144 484zM422 548q10 -144 62 -214q50 -68 144 -68q84 0 134 48t50 128q0 88 -48 138q-48 48 -134 48q-106 0 -208 -80z" />
<glyph unicode="7" horiz-adv-x="1046" d="M32 1058v194v114h966v-276q-162 -272 -268 -514q-108 -242 -212 -576h-356q80 258 216 562q138 302 264 496h-610z" />
<glyph unicode="8" horiz-adv-x="1270" d="M82 394q0 116 62 206t184 148q-84 42 -136 120q-50 76 -50 160q0 164 138 270q138 104 356 104q138 0 248 -46q112 -48 176 -134q68 -84 68 -194q0 -84 -46 -160t-124 -120q230 -114 230 -350q0 -120 -68 -216q-70 -98 -194 -158q-126 -56 -284 -56q-162 0 -288 52 t-200 148q-72 98 -72 226zM432 408q0 -74 56 -122q56 -46 144 -46q96 0 152 46q58 48 58 122q0 70 -54 120q-52 50 -154 76q-202 -52 -202 -196zM456 1006q0 -58 48 -104q48 -48 130 -70q80 24 128 72q46 46 46 102q0 68 -50 110q-50 44 -128 44q-82 0 -128 -42 q-46 -40 -46 -112z" />
<glyph unicode="9" horiz-adv-x="1184" d="M62 910q0 140 60 252t174 176q116 64 268 64q262 0 400 -178t138 -516q0 -230 -72 -396q-74 -166 -214 -256q-142 -88 -342 -88q-184 0 -342 80q38 90 116 272q48 -26 114 -40q64 -14 124 -14q120 0 186 72q66 74 82 230q-58 -52 -124 -74q-64 -22 -150 -22 q-194 0 -306 118t-112 320zM382 932q0 -84 46 -134q46 -48 124 -48q60 0 106 16t104 60v16q0 128 -52 200q-52 70 -146 70q-80 0 -130 -50q-52 -48 -52 -130z" />
<glyph unicode=":" horiz-adv-x="598" d="M112 0v370h374v-370h-374zM112 592v370h374v-370h-374z" />
<glyph unicode=";" horiz-adv-x="598" d="M108 0v94v278h384v-372q-42 -74 -170 -292h-212q32 72 128 292h-130zM112 592v370h374v-370h-374z" />
<glyph unicode="&#x3c;" d="M144 544v200q180 96 722 382q32 -60 124 -244q-118 -58 -470 -232q122 -60 486 -234q-36 -64 -140 -254q-180 96 -722 382z" />
<glyph unicode="=" d="M166 294v272h818v-272h-818zM166 698v270h818v-270h-818z" />
<glyph unicode="&#x3e;" d="M144 416q120 58 484 234q-116 58 -468 232q30 62 122 244q182 -96 724 -382v-200q-182 -94 -724 -382q-34 64 -138 254z" />
<glyph unicode="?" horiz-adv-x="1108" d="M52 1198q92 94 216 150t282 56q94 0 178 -22t148 -72q66 -48 104 -126q40 -76 40 -182q0 -60 -14 -106q-12 -46 -36 -80q-22 -36 -50 -64t-56 -50q-30 -26 -62 -50t-56 -50q-26 -24 -40 -58q-16 -32 -16 -76v-8h-318v12q0 70 14 122q14 54 36 92q22 42 50 68q28 28 56 50 t52 40q26 18 44 36q22 22 34 42q12 22 12 50q0 34 -16 56q-16 20 -38 32q-22 14 -50 18q-30 6 -54 6q-72 0 -140 -36q-66 -34 -120 -88q-66 80 -200 238zM354 0v348h350v-348h-350z" />
<glyph unicode="@" horiz-adv-x="1970" d="M74 544q0 216 76 376q78 162 206 268q130 108 300 162q170 52 356 52q238 0 406 -64t274 -176t156 -262q48 -150 48 -324q0 -166 -38 -282q-40 -114 -102 -188q-64 -72 -146 -104q-80 -32 -164 -32q-56 0 -98 6q-42 8 -74 22q-30 12 -58 34q-28 24 -54 54 q-42 -48 -108 -82q-66 -36 -186 -36q-56 0 -116 12q-60 14 -108 46q-50 34 -80 90q-32 56 -32 142t36 150q36 66 98 106q62 44 144 64t178 20q40 0 58 -2l54 -6v48t-14 52q-12 18 -36 30q-20 14 -46 18q-28 4 -54 4q-92 0 -156 -24t-108 -54q-44 66 -136 196q62 50 170 92 q110 42 280 42q200 0 312 -94q114 -96 114 -292v-276q0 -74 18 -104q20 -30 64 -30q30 0 58 28q30 28 50 78q20 48 32 116q12 70 12 154q0 162 -48 278t-134 192t-204 112t-262 36q-126 0 -250 -34q-126 -34 -226 -112q-100 -76 -164 -200q-62 -124 -62 -302q0 -92 16 -170 q18 -80 40 -138q26 -60 46 -98q22 -40 30 -52q-64 -42 -192 -124q-18 20 -48 72t-58 128q-30 78 -50 174q-20 98 -20 208zM868 308q0 -106 104 -106q54 0 90 32q38 32 38 118v66q-10 2 -28 4t-50 2q-86 0 -120 -34q-34 -36 -34 -82z" />
<glyph unicode="A" horiz-adv-x="1442" d="M20 0q126 342 502 1366h416q120 -342 484 -1366h-392q-22 70 -88 282h-456q-24 -70 -90 -282h-376zM560 546h308q-38 126 -152 502q-38 -124 -156 -502z" />
<glyph unicode="B" horiz-adv-x="1296" d="M122 0v854v512h556q144 0 238 -32t148 -82q56 -50 78 -114t22 -128q0 -60 -20 -106q-20 -48 -50 -84t-64 -60t-66 -36q40 -12 86 -36q48 -24 88 -66q42 -40 70 -98t28 -132q0 -206 -142 -298q-142 -94 -416 -94h-556zM478 258h184q30 0 68 6q36 4 66 20q32 18 52 50 t20 88q0 52 -20 82q-20 32 -52 48q-30 18 -66 24q-38 6 -68 6h-184v-324zM478 818h156q64 0 114 30q50 32 50 110q0 44 -14 74q-14 28 -38 46q-24 16 -52 22q-30 8 -60 8h-156v-290z" />
<glyph unicode="C" horiz-adv-x="1398" d="M70 680q0 156 50 288q52 132 146 228q94 98 226 152q130 54 288 54q178 0 330 -58q152 -60 256 -208q-80 -80 -240 -242q-56 78 -136 126t-184 48q-86 0 -152 -30q-68 -28 -116 -80q-44 -50 -70 -120q-24 -68 -24 -148q0 -82 26 -152t72 -120q48 -52 114 -80t148 -28 q120 0 194 42q76 42 146 132q82 -78 244 -230q-230 -288 -608 -288q-158 0 -288 52q-132 54 -226 148q-92 94 -144 226q-52 130 -52 288z" />
<glyph unicode="D" horiz-adv-x="1450" d="M122 0v854v512h526q156 0 292 -40q134 -42 232 -126t154 -214q54 -132 54 -310q0 -170 -56 -296t-154 -212q-98 -84 -234 -126t-290 -42h-524zM486 320h146q180 0 276 100q98 102 98 264q0 82 -22 148q-24 68 -70 114q-46 50 -116 76q-68 26 -166 26h-146v-728z" />
<glyph unicode="E" horiz-adv-x="1214" d="M122 0v854v512h984v-314h-620v-210h510v-296h-510v-232h662v-314h-1026z" />
<glyph unicode="F" horiz-adv-x="1116" d="M122 0v854v512h954v-318h-590v-264h456v-298h-456v-486h-364z" />
<glyph unicode="G" horiz-adv-x="1480" d="M70 686q0 156 52 288t146 226q94 96 224 150q130 52 288 52q170 0 318 -56q150 -56 250 -186q-78 -80 -236 -238q-64 64 -136 104q-72 42 -170 42q-88 0 -154 -32q-68 -30 -116 -84q-44 -50 -70 -122q-24 -70 -24 -150q0 -88 26 -158q28 -72 74 -122q48 -50 116 -78 q66 -28 150 -28q68 0 130 18q62 16 118 56v132h-236v280h560v-616q-122 -104 -282 -150q-158 -46 -318 -46q-166 0 -298 50t-224 142q-92 94 -140 228q-48 132 -48 298z" />
<glyph unicode="H" horiz-adv-x="1474" d="M122 0v854v512h364v-500h504v500h362v-1366h-362v534h-504v-534h-364z" />
<glyph unicode="I" horiz-adv-x="608" d="M122 0v854v512h364v-1366h-364z" />
<glyph unicode="J" horiz-adv-x="1106" d="M20 174q72 74 216 224q38 -46 94 -80q58 -36 130 -36q96 0 134 50t38 140v894h364v-936q0 -110 -38 -198q-38 -86 -106 -148q-68 -60 -158 -90q-92 -30 -198 -30q-136 0 -262 52q-128 52 -214 158z" />
<glyph unicode="K" horiz-adv-x="1410" d="M122 0v854v512h364v-512q102 128 406 512h424q-112 -132 -454 -526q132 -210 526 -840h-440q-84 138 -334 552q-32 -36 -128 -150v-402h-364z" />
<glyph unicode="L" horiz-adv-x="1160" d="M122 0v854v512h364v-1046h632v-320h-996z" />
<glyph unicode="M" horiz-adv-x="1668" d="M94 0q16 342 64 1366h346q82 -148 332 -596q80 150 326 596h348q16 -342 62 -1366h-366l-32 800q-60 -116 -240 -466h-198q-68 116 -268 466q-6 -200 -26 -800h-348z" />
<glyph unicode="N" horiz-adv-x="1458" d="M122 0v854v512h330q132 -190 524 -762v762h360v-1366h-310l-544 784v-784h-360z" />
<glyph unicode="O" horiz-adv-x="1560" d="M70 686q0 156 52 288q54 132 148 226q96 96 226 150q130 52 284 52t284 -52q132 -54 226 -150q94 -94 148 -226q52 -132 52 -288t-52 -288q-54 -132 -148 -228q-94 -94 -226 -148q-130 -54 -284 -54t-284 54t-226 148q-94 96 -148 228q-52 132 -52 288zM444 686 q0 -78 22 -148q24 -70 66 -120q44 -52 106 -82q62 -28 142 -28t142 28q64 30 106 82q44 50 66 120t22 148t-22 148t-66 120q-42 52 -106 82q-62 28 -142 28t-142 -28q-62 -30 -106 -82q-42 -50 -66 -120q-22 -70 -22 -148z" />
<glyph unicode="P" horiz-adv-x="1224" d="M124 0v854v512h558q110 0 200 -30q88 -30 152 -86t98 -142q36 -84 36 -194q0 -106 -36 -190q-36 -86 -100 -146q-62 -60 -148 -92q-88 -32 -192 -32h-212v-454h-356zM480 740h172q72 0 116 46q44 48 44 122q0 78 -42 124q-40 48 -120 48h-170v-340z" />
<glyph unicode="Q" horiz-adv-x="1560" d="M70 686q0 156 52 288q54 132 148 226q96 96 226 150q130 52 284 52t284 -52q132 -54 226 -150q94 -94 148 -226q52 -132 52 -288t-52 -286q-52 -132 -148 -228q46 -54 136 -162q-46 -38 -182 -150q-38 44 -146 174q-72 -32 -150 -50q-80 -16 -168 -16q-154 0 -284 54 t-226 148q-94 96 -148 228q-52 132 -52 288zM444 686q0 -78 22 -148q24 -70 66 -120q44 -52 106 -82q62 -28 142 -28q22 0 44 2l40 8q-46 56 -140 170q46 36 182 148q36 -44 148 -182q32 48 46 108q16 58 16 124q0 78 -22 148t-66 120q-42 52 -106 82q-62 28 -142 28 t-142 -28q-62 -30 -106 -82q-42 -50 -66 -120q-22 -70 -22 -148z" />
<glyph unicode="R" horiz-adv-x="1286" d="M122 0v854v512h566q110 0 200 -28q88 -30 152 -86t98 -140q36 -84 36 -194q0 -136 -60 -234q-60 -100 -158 -160q98 -174 294 -524h-390l-232 464h-150v-464h-356zM478 750h176q70 0 116 44t46 118q0 78 -44 122q-42 46 -120 46h-174v-330z" />
<glyph unicode="S" horiz-adv-x="1208" d="M10 168q74 88 220 264q56 -58 148 -104q94 -48 204 -48q26 0 54 6q30 4 52 18q22 12 36 32q16 20 16 54q0 52 -54 88q-56 34 -160 68q-24 10 -76 26q-62 20 -128 52q-64 34 -116 78q-50 48 -82 110t-32 146q0 94 34 176q36 80 102 140q66 62 166 96q98 32 226 32 q100 0 182 -18t144 -44q62 -28 104 -58q44 -30 66 -56q-62 -78 -184 -232q-72 52 -150 86t-160 34q-26 0 -52 -6q-28 -6 -50 -18q-20 -12 -34 -32q-12 -20 -12 -48q0 -32 14 -54q16 -22 42 -38q28 -16 64 -30q38 -14 82 -28q22 -6 66 -20q70 -22 140 -52q72 -30 130 -82 q58 -48 94 -124q36 -74 36 -182q0 -94 -44 -174t-120 -138q-72 -58 -174 -90q-102 -30 -216 -30q-206 0 -344 54t-234 146z" />
<glyph unicode="T" horiz-adv-x="1284" d="M40 1048v186v132h1204v-318h-416v-1048h-368v1048h-420z" />
<glyph unicode="U" horiz-adv-x="1406" d="M114 532v542v292h364v-800q0 -114 52 -186q52 -70 172 -70q122 0 172 72q52 72 52 184v800h366v-834q0 -130 -42 -236q-44 -106 -124 -180q-78 -72 -184 -112q-108 -38 -238 -38q-128 0 -238 38q-108 40 -188 110q-78 74 -120 180q-44 106 -44 238z" />
<glyph unicode="V" horiz-adv-x="1418" d="M20 1366h396q76 -238 306 -950q72 238 288 950h386q-124 -342 -496 -1366h-384q-124 342 -496 1366z" />
<glyph unicode="W" horiz-adv-x="1906" d="M20 1366h384q44 -228 176 -916q54 222 214 884h330q54 -222 218 -884q42 230 174 916h370q-84 -342 -340 -1366h-378l-216 864q-54 -216 -214 -864h-386q-82 342 -332 1366z" />
<glyph unicode="X" horiz-adv-x="1386" d="M0 0q116 174 464 698q-116 168 -464 668h446q58 -88 228 -354q54 88 218 354h404l-424 -632q128 -184 514 -734h-452q-68 104 -272 420q-66 -106 -264 -420h-398z" />
<glyph unicode="Y" horiz-adv-x="1376" d="M20 1366h416q66 -122 266 -488q62 122 250 488h404q-122 -204 -488 -820v-546h-362v544q-122 206 -486 822z" />
<glyph unicode="Z" horiz-adv-x="1276" d="M74 0v70v210q172 192 690 768h-656v318h1104v-278q-170 -194 -678 -770h692v-318h-1152z" />
<glyph unicode="[" horiz-adv-x="754" d="M144 -190v1022v614h548v-262h-244v-1108h244v-266h-548z" />
<glyph unicode="\" horiz-adv-x="964" d="M34 1402h352q136 -358 544 -1434h-356q-136 358 -540 1434z" />
<glyph unicode="]" horiz-adv-x="754" d="M62 76h244v1108h-244v262h548v-1636h-548v266z" />
<glyph unicode="^" horiz-adv-x="1162" d="M72 600l368 768h280q94 -192 370 -768h-352q-40 90 -156 362q-40 -90 -160 -362h-350z" />
<glyph unicode="_" horiz-adv-x="1024" d="M0 -134h1024v-112h-1024v80v32z" />
<glyph unicode="`" horiz-adv-x="902" d="M240 1396h326q24 -72 98 -290h-240q-46 72 -184 290z" />
<glyph unicode="a" horiz-adv-x="1080" d="M48 258q0 86 36 152q36 68 100 110q64 46 148 68t176 22q48 0 74 -2q28 -2 64 -6v18q0 38 -16 60q-16 24 -40 36q-22 16 -50 20q-28 6 -54 6q-92 0 -162 -24t-114 -54q-42 66 -130 198q62 50 172 90q110 42 282 42q100 0 182 -26t142 -80q60 -50 92 -128q34 -76 34 -178 v-582h-326q-4 22 -12 90q-66 -70 -132 -96q-68 -26 -166 -26q-46 0 -100 12q-54 14 -98 46q-46 34 -74 90t-28 142zM382 310q0 -108 116 -108q26 0 52 8q28 8 48 24q20 18 34 46q14 30 14 72v64q-36 8 -96 8q-86 0 -126 -34q-42 -34 -42 -80z" />
<glyph unicode="b" horiz-adv-x="1166" d="M100 46v856v464h346v-482q28 32 60 50q34 18 68 28q34 12 64 16q30 6 50 6q100 0 180 -40q78 -40 130 -108q52 -66 80 -152t28 -180q0 -256 -148 -396q-146 -140 -434 -140q-122 0 -236 24q-112 24 -188 54zM446 270q48 -20 122 -20q84 0 136 58q54 56 54 182q0 32 -8 68 t-28 64q-18 30 -46 48t-68 18q-86 0 -124 -54q-38 -52 -38 -132v-232z" />
<glyph unicode="c" horiz-adv-x="990" d="M60 484q0 108 40 202q40 92 108 162q72 70 168 108q96 40 204 40q142 0 240 -46q98 -44 158 -114q-66 -78 -202 -232q-22 26 -64 58q-40 30 -122 30q-72 0 -128 -56q-54 -56 -54 -152q0 -48 14 -88q16 -40 40 -68q26 -26 58 -42t70 -16t70 10q30 8 52 24q24 14 38 28 l26 26q68 -76 202 -232q-26 -30 -64 -58q-40 -30 -90 -52t-112 -36q-60 -12 -132 -12q-108 0 -204 36t-168 104q-68 68 -108 164q-40 94 -40 212z" />
<glyph unicode="d" horiz-adv-x="1176" d="M60 474q0 108 36 200q38 94 104 162q70 70 166 108q94 40 212 40q46 0 86 -8q38 -8 66 -16v406h346v-1366h-316q-4 24 -18 98q-54 -64 -126 -94t-138 -30q-78 0 -144 22q-64 24 -114 68q-78 66 -120 172q-40 108 -40 238zM408 460q0 -86 42 -138t128 -52q76 0 114 46 q38 44 38 126v232q-54 18 -114 18q-92 0 -150 -58q-58 -56 -58 -174z" />
<glyph unicode="e" horiz-adv-x="1092" d="M60 478q0 96 30 188q30 94 92 166q64 74 158 118q96 46 224 46q98 0 184 -34q88 -34 152 -104q64 -68 102 -170q36 -104 36 -244v-66h-650q2 -24 12 -50q12 -26 38 -52q28 -22 76 -36q46 -14 112 -14q88 0 162 22q72 22 114 46q36 -74 108 -224q-24 -14 -62 -32t-90 -34 q-52 -14 -114 -26q-64 -10 -136 -10q-266 0 -408 134q-140 134 -140 376zM390 584h342q0 24 -12 50q-10 28 -32 50q-20 22 -52 38t-76 16t-76 -16q-34 -16 -54 -38t-30 -50q-10 -26 -10 -50z" />
<glyph unicode="f" horiz-adv-x="762" d="M30 696v168v98h148v38q0 98 32 172q34 76 92 126q56 52 136 78q78 26 172 26q90 0 170 -24q78 -26 138 -74l-144 -222q-28 20 -62 32t-70 12q-54 0 -86 -32q-32 -34 -32 -88v-44h210v-266h-210v-696h-346v696h-148z" />
<glyph unicode="g" horiz-adv-x="1162" d="M60 460q0 126 40 224q42 98 116 164t178 100q104 36 226 36q116 0 224 -22q110 -20 216 -58v-826q0 -274 -132 -394q-134 -118 -390 -118q-108 0 -212 22t-196 82q42 80 130 240q56 -34 118 -54t128 -20q106 0 158 48t52 162v32q-46 -44 -108 -56t-120 -12 q-102 0 -182 34q-80 32 -136 92q-54 58 -82 142q-28 82 -28 182zM406 474q0 -98 46 -144q46 -48 116 -48q66 0 108 40t42 126v236q-54 18 -110 18q-52 0 -92 -18q-38 -18 -64 -50q-24 -30 -36 -72q-10 -42 -10 -88z" />
<glyph unicode="h" horiz-adv-x="1182" d="M100 0v854v512h346v-492q30 36 66 58t76 34q38 12 74 18q36 4 62 4q76 0 142 -22t114 -68q50 -46 78 -118q28 -74 28 -174v-606h-346v516q0 78 -34 122t-100 44q-46 0 -78 -14q-30 -14 -48 -40q-20 -24 -26 -54q-8 -30 -8 -60v-514h-346z" />
<glyph unicode="i" horiz-adv-x="560" d="M92 1094v272h374v-272h-374zM106 0v362v600h346v-962h-346z" />
<glyph unicode="j" horiz-adv-x="586" d="M-260 -310q42 80 128 236q30 -16 60 -28q32 -12 64 -12q90 0 116 46q26 48 26 128v902h346v-862q0 -110 -20 -204q-18 -92 -66 -160q-48 -70 -130 -108t-208 -38q-88 0 -172 26t-144 74zM118 1094v68v204h376v-272h-376z" />
<glyph unicode="k" horiz-adv-x="1134" d="M100 0v854v512h346v-672q60 68 240 268h386q-82 -88 -328 -354q94 -152 380 -608h-396q-54 92 -214 368q-16 -18 -68 -72v-296h-346z" />
<glyph unicode="l" horiz-adv-x="546" d="M100 0v854v512h346v-1366h-346z" />
<glyph unicode="m" horiz-adv-x="1792" d="M100 0v602v360h334q4 -26 12 -106q56 70 130 100q76 32 148 32q68 0 116 -16t82 -38q32 -20 50 -42q20 -22 30 -34q22 24 58 48q38 24 78 42q44 18 90 28q46 12 86 12q188 0 284 -104q98 -102 98 -278v-606h-346v514q0 78 -32 122q-30 46 -100 46t-114 -46 q-44 -44 -44 -122v-514h-324v514q0 78 -30 122q-30 46 -102 46q-66 0 -112 -46q-46 -44 -46 -122v-514h-346z" />
<glyph unicode="n" horiz-adv-x="1174" d="M100 0v602v360h334q4 -24 12 -100q30 36 66 60t76 38q38 14 74 20q36 8 62 8q76 0 142 -22q64 -22 110 -68q48 -46 74 -118q28 -74 28 -174v-606h-346v524q0 72 -30 114q-30 44 -96 44q-46 0 -78 -14q-30 -14 -48 -40q-20 -24 -26 -54q-8 -30 -8 -60v-514h-346z" />
<glyph unicode="o" horiz-adv-x="1146" d="M60 482q0 106 38 200t104 164q68 70 162 110t210 40q114 0 208 -40t162 -110t106 -164t38 -200q0 -110 -38 -202q-38 -94 -106 -164q-68 -68 -162 -108t-208 -40q-116 0 -210 40t-162 108q-66 70 -104 164q-38 92 -38 202zM386 482q0 -92 50 -152q52 -60 138 -60t136 60 q52 60 52 152t-52 150q-50 60 -136 60t-138 -60q-50 -58 -50 -150z" />
<glyph unicode="p" horiz-adv-x="1166" d="M100 -410v858v514h332q4 -24 14 -100q28 40 60 62q34 24 68 36t64 16t50 4q100 0 180 -38q78 -40 130 -108q52 -66 80 -152t28 -180q0 -128 -38 -226q-40 -98 -110 -166q-70 -66 -162 -102q-94 -36 -200 -36q-46 0 -88 8t-64 14v-404h-344zM446 274q48 -20 122 -20 q84 0 136 54q54 54 54 180q0 32 -8 68t-28 64q-18 30 -46 48t-68 18q-86 0 -124 -54q-38 -52 -38 -132v-226z" />
<glyph unicode="q" horiz-adv-x="1176" d="M60 474q0 108 38 200q38 94 108 162q74 70 182 108q106 40 242 40q106 0 210 -18q106 -18 236 -64v-1312h-346v466q-38 -38 -96 -58q-58 -18 -130 -18q-98 0 -180 30q-82 28 -142 88q-58 62 -90 154q-32 94 -32 222zM408 460q0 -86 42 -138t128 -52q76 0 114 46 q38 44 38 126v232q-54 18 -114 18q-92 0 -150 -58q-58 -56 -58 -174z" />
<glyph unicode="r" horiz-adv-x="828" d="M100 0v602v360h334q4 -30 12 -120q42 58 102 98q60 38 146 38q42 0 70 -4q30 -4 54 -12q-16 -98 -46 -294q-50 12 -100 12q-226 0 -226 -248v-432h-346z" />
<glyph unicode="s" horiz-adv-x="996" d="M30 100q50 74 148 220q24 -20 60 -38q34 -18 72 -30t76 -20q38 -6 66 -6q54 0 92 12t38 56q0 34 -44 54q-44 18 -158 54q-62 18 -116 44t-92 60t-60 82q-22 46 -22 108t30 116t82 96q56 40 132 64q78 24 170 24q118 0 214 -30q96 -28 180 -84q-40 -70 -118 -214 q-56 32 -116 56q-60 26 -126 26q-106 0 -106 -58q0 -24 20 -40t52 -28q32 -10 76 -20q42 -12 92 -28q74 -26 120 -56q48 -30 74 -68q28 -36 40 -80q10 -44 10 -94q0 -88 -40 -146q-40 -60 -104 -98q-64 -36 -142 -52q-80 -14 -154 -14q-126 0 -248 34q-122 32 -198 98z" />
<glyph unicode="t" horiz-adv-x="888" d="M20 696v156v110h142v268h346v-268h238v-266h-238v-340q0 -118 112 -118q34 0 66 14q30 14 58 32q44 -70 134 -212q-64 -52 -144 -80t-164 -28q-118 0 -196 32q-80 32 -126 90q-48 60 -66 142q-20 82 -20 178v290h-142z" />
<glyph unicode="u" horiz-adv-x="1170" d="M96 354v262v346h346v-526q0 -72 30 -114q30 -44 106 -44q40 0 68 14q28 16 44 40q18 24 26 54q6 30 6 60v516h348v-962h-334q-4 24 -14 98q-28 -34 -64 -60q-38 -24 -76 -38q-40 -14 -76 -20q-34 -6 -62 -6q-76 0 -138 20q-64 22 -112 68q-44 46 -72 118q-26 72 -26 174z " />
<glyph unicode="v" horiz-adv-x="1154" d="M10 962h378q48 -144 196 -574q46 142 182 574h376q-104 -240 -418 -962h-308q-102 240 -406 962z" />
<glyph unicode="w" horiz-adv-x="1618" d="M10 962h342q38 -140 152 -564q42 140 170 564h268q44 -140 172 -564q38 140 152 564h342q-84 -240 -334 -962h-300q-40 124 -166 496q-40 -124 -164 -496h-300q-84 240 -334 962z" />
<glyph unicode="x" horiz-adv-x="1120" d="M10 962h400l152 -232l152 232h372q-86 -116 -338 -466q90 -124 362 -496h-400q-40 60 -162 242q-40 -60 -160 -242h-372q86 120 346 478q-88 120 -352 484z" />
<glyph unicode="y" horiz-adv-x="1174" d="M10 962h394q50 -138 204 -556q48 138 194 556h362q-96 -236 -384 -948q-36 -90 -72 -170q-36 -82 -88 -144q-48 -60 -120 -98q-72 -36 -178 -36q-76 0 -148 22q-72 20 -138 66q44 78 130 236q28 -22 66 -36q36 -14 64 -14q48 0 78 18q32 18 54 76q10 26 28 78 q-110 238 -446 950z" />
<glyph unicode="z" horiz-adv-x="1040" d="M70 0v54v158q112 120 452 476h-426v274h870v-218q-110 -120 -440 -478h446v-266h-902z" />
<glyph unicode="{" horiz-adv-x="650" d="M52 536v92v92q78 0 110 44q34 42 38 106q10 110 30 328q8 90 30 150q22 58 70 98h288q-36 -36 -66 -106q-28 -68 -36 -160q-10 -120 -28 -358q-4 -38 -22 -70t-44 -56q-24 -24 -54 -42t-58 -26q28 -8 58 -26t56 -46q26 -30 44 -70q20 -40 24 -90q10 -120 28 -360 q4 -58 32 -124q30 -66 66 -102h-288q-48 38 -70 98q-22 62 -30 152q-10 108 -30 328q-4 62 -38 106q-32 42 -110 42z" />
<glyph unicode="|" horiz-adv-x="576" d="M134 -336v1192v850h308v-2042h-308z" />
<glyph unicode="}" horiz-adv-x="650" d="M30 -190q38 36 66 102t34 124q8 120 28 360q4 50 22 90t46 70q26 28 56 46t58 26q-28 8 -58 26t-56 42t-44 56t-20 70q-10 118 -28 358q-10 92 -38 160q-28 70 -66 106h290q46 -40 70 -98q22 -60 30 -150q10 -110 28 -328q4 -64 38 -106q34 -44 112 -44v-184 q-78 0 -112 -42q-34 -44 -38 -106q-10 -110 -28 -328q-8 -90 -30 -152q-24 -60 -70 -98h-290z" />
<glyph unicode="~" horiz-adv-x="1038" d="M66 656l54 54q32 30 68 54q40 24 84 40q46 18 98 18q40 0 74 -14q36 -14 66 -30q30 -14 62 -26q30 -12 62 -12q42 0 80 22q40 22 106 80q50 -84 152 -254q-20 -30 -52 -62q-34 -30 -72 -54q-36 -24 -78 -38q-42 -16 -80 -16q-46 0 -86 14q-38 12 -74 28q-32 20 -64 32 q-30 14 -62 14q-48 0 -86 -26t-98 -78q-52 84 -154 254z" />
<glyph unicode="&#xa1;" horiz-adv-x="624" d="M122 -404q6 226 22 904h338q4 -226 20 -904h-380zM138 614v88v260h350v-348h-350z" />
<glyph unicode="&#xa2;" d="M146 642q0 96 32 180q30 86 88 150q58 66 134 112q78 44 170 60v186h206v-188q98 -16 170 -56q70 -40 118 -92q-66 -78 -202 -232q-22 26 -64 58q-40 30 -122 30q-72 0 -128 -56q-54 -56 -54 -152q0 -98 50 -154q52 -58 132 -58q38 0 70 10q30 8 52 22q24 16 38 30l26 26 q68 -76 202 -232q-42 -46 -114 -90q-74 -42 -174 -60v-174h-206v174q-92 14 -170 56q-76 42 -134 108q-58 64 -88 152q-32 86 -32 190z" />
<glyph unicode="&#xa3;" horiz-adv-x="1178" d="M50 576v52v158h144v132q0 224 134 354q132 130 364 130q272 0 428 -178q-68 -74 -202 -220q-36 34 -86 58q-52 26 -96 26q-84 0 -132 -50t-48 -138v-114h372v-210h-372v-262h558v-314h-920v576h-144z" />
<glyph unicode="&#xa4;" horiz-adv-x="1116" d="M46 320q34 36 138 144q-46 84 -46 192q0 96 40 178l-132 138q46 48 186 192l136 -144q40 16 80 26q42 10 88 10q106 0 196 -50q48 52 148 158q48 -48 190 -192q-40 -40 -160 -166q14 -34 22 -72t8 -78q0 -86 -34 -166q54 -58 164 -170q-48 -48 -190 -186q-40 40 -160 162 q-84 -42 -184 -42q-86 0 -156 30q-48 -50 -148 -150q-48 46 -186 186zM396 656q0 -60 40 -102q42 -42 100 -42q60 0 100 42q42 42 42 102q0 56 -42 98q-40 40 -100 40q-58 0 -100 -40q-40 -42 -40 -98z" />
<glyph unicode="&#xa5;" d="M0 1290h374q52 -126 204 -506q52 126 206 506h364q-74 -146 -296 -586h158v-184h-250v-130h250v-186h-250v-204h-370v204h-252v186h252v130h-252v184h156q-72 146 -294 586z" />
<glyph unicode="&#xa6;" horiz-adv-x="576" d="M134 150v290h308v-776h-308v486zM134 930v486v290h308v-776h-308z" />
<glyph unicode="&#xa7;" horiz-adv-x="1000" d="M86 292q46 70 184 278q106 -68 424 -274q104 -64 148 -152q42 -86 42 -188q0 -82 -34 -154q-32 -72 -90 -124t-134 -82q-78 -30 -164 -30q-72 0 -134 18q-60 16 -104 40q-44 22 -70 42q-28 20 -36 28q56 86 168 254l30 -18q18 -12 40 -24q24 -14 50 -24q26 -8 50 -8 q40 0 62 20t22 48q0 24 -10 42q-12 20 -44 42q-134 90 -400 266zM114 1012q0 84 34 156t92 122q56 54 134 84q76 28 162 28q74 0 134 -16q62 -18 104 -40q46 -22 72 -44q26 -20 34 -28q-56 -84 -168 -254q-10 6 -28 18q-20 12 -42 24q-24 16 -50 24q-24 10 -50 10 q-38 0 -60 -20q-24 -22 -24 -50q0 -22 12 -42t44 -42q134 -88 400 -266q-46 -70 -184 -276l-424 272q-106 66 -148 152q-44 88 -44 188z" />
<glyph unicode="&#xa8;" horiz-adv-x="902" d="M110 1128v246h268v-246h-268zM522 1128v246h268v-246h-268z" />
<glyph unicode="&#xa9;" horiz-adv-x="1644" d="M112 686q0 150 56 280t150 226q96 96 226 152t280 56q148 0 278 -56q128 -56 224 -152t150 -226q56 -130 56 -280t-56 -280q-54 -130 -150 -228q-98 -96 -226 -152q-130 -54 -278 -54q-150 0 -280 54q-128 56 -224 152q-94 98 -150 228t-56 280zM294 686q0 -116 40 -216 t110 -174q72 -70 168 -112t210 -42q112 0 208 42t166 112q72 74 112 174t40 216q0 114 -40 214t-112 174q-70 72 -166 114t-206 42q-114 0 -210 -42t-168 -114q-70 -74 -110 -174q-42 -100 -42 -214zM436 692q0 80 28 152q30 72 80 124q54 54 126 84q74 32 160 32 q106 0 188 -52q82 -54 136 -126q-52 -42 -156 -122q-24 42 -64 72q-42 30 -94 30q-86 0 -136 -54q-48 -56 -48 -142q0 -82 50 -138q50 -54 134 -54q60 0 100 32q38 34 58 68q52 -42 156 -124q-54 -72 -136 -124q-82 -54 -188 -54q-88 0 -162 30q-72 30 -124 84 q-50 52 -80 126q-28 72 -28 156z" />
<glyph unicode="&#xaa;" horiz-adv-x="798" d="M72 840q0 64 30 106t74 66q48 26 102 36q56 10 110 10q40 0 80 -6v36q0 38 -34 54q-36 16 -70 16q-48 0 -98 -14q-48 -14 -90 -42q-30 44 -88 132q66 52 148 72q82 22 164 22q62 0 118 -16q54 -16 92 -48q42 -32 64 -80q24 -50 24 -116v-408h-214q-2 14 -6 54 q-42 -40 -90 -58q-48 -20 -108 -20q-92 0 -150 56q-58 54 -58 148zM300 862q0 -34 22 -50q22 -18 54 -18q44 0 68 26t24 68v44q-28 6 -56 6q-16 0 -38 -4q-20 -4 -36 -14q-16 -8 -28 -22q-10 -16 -10 -36z" />
<glyph unicode="&#xab;" horiz-adv-x="1268" d="M98 496l216 408h344q-54 -102 -214 -408q54 -104 214 -412h-344q-54 102 -216 412zM602 496l216 408h344q-54 -102 -214 -408q54 -104 214 -412h-344q-54 102 -216 412z" />
<glyph unicode="&#xac;" d="M166 512v270h818v-544h-280v274h-538z" />
<glyph unicode="&#xad;" horiz-adv-x="922" d="M122 408v332h676v-332h-676z" />
<glyph unicode="&#xae;" horiz-adv-x="1644" d="M112 686q0 150 56 280t150 226q96 96 226 152t280 56q148 0 278 -56q128 -56 224 -152t150 -226q56 -130 56 -280t-56 -280q-54 -130 -150 -228q-98 -96 -226 -152q-130 -54 -278 -54q-150 0 -280 54q-128 56 -224 152q-94 98 -150 228t-56 280zM294 686q0 -116 40 -216 t110 -174q72 -70 168 -112t210 -42q112 0 208 42t166 112q72 74 112 174t40 216q0 114 -40 214t-112 174q-70 72 -166 114t-206 42q-114 0 -210 -42t-168 -114q-70 -74 -110 -174q-42 -100 -42 -214zM536 336v714h304q74 0 126 -20q52 -22 82 -56q34 -32 48 -70 q16 -40 16 -74q0 -58 -32 -114q-34 -54 -86 -88q56 -96 170 -292h-220q-36 64 -148 258h-62v-258h-198zM734 754h100q46 0 64 18q16 16 16 46t-20 48q-18 18 -60 18h-100v-130z" />
<glyph unicode="&#xaf;" horiz-adv-x="902" d="M158 1120v58v174h586v-232h-586z" />
<glyph unicode="&#xb0;" horiz-adv-x="780" d="M82 1062q0 66 24 122q26 58 66 96q40 40 98 64q56 22 120 22q62 0 120 -22q58 -24 98 -64q42 -38 66 -96q24 -56 24 -122q0 -64 -24 -120t-66 -96q-40 -40 -98 -62t-120 -22q-64 0 -120 22q-58 22 -98 62t-66 96q-24 56 -24 120zM290 1062q0 -42 28 -72q26 -32 72 -32 t72 32q28 30 28 72q0 46 -28 76q-26 32 -72 32t-72 -32q-28 -30 -28 -76z" />
<glyph unicode="&#xb1;" d="M166 0v270h268v242h-268v270h268v278h278v-278h272v-270h-272v-242h272v-270h-818z" />
<glyph unicode="&#xb2;" horiz-adv-x="738" d="M66 1224q74 50 140 74q68 26 150 26q60 0 112 -14q54 -14 94 -40t64 -68q24 -40 24 -96q0 -52 -18 -90q-16 -38 -44 -68q-26 -28 -62 -52q-34 -24 -72 -46q-24 -14 -44 -26q-18 -12 -42 -30h286v-192h-574v128q0 40 20 74q18 36 48 64q30 32 66 56q36 26 70 48 q48 30 84 58q38 28 38 58q0 44 -64 44q-70 0 -164 -58q-38 50 -112 150z" />
<glyph unicode="&#xb3;" horiz-adv-x="738" d="M28 672l114 168q42 -28 92 -46q48 -18 96 -18q34 0 62 14q26 14 26 46q0 38 -30 50t-60 12q-22 0 -50 -4q-26 -4 -54 -12q-18 36 -52 106l200 128h-264v188h520v-156q-36 -28 -146 -116q88 -14 130 -68q44 -54 44 -138q0 -64 -28 -110t-76 -78q-44 -28 -102 -42t-118 -14 q-78 0 -154 24q-78 22 -150 66z" />
<glyph unicode="&#xb4;" horiz-adv-x="902" d="M240 1106q24 72 98 290h326q-46 -72 -184 -290h-240z" />
<glyph unicode="&#xb5;" horiz-adv-x="1174" d="M100 -410v858v514h346v-522q0 -78 32 -120t104 -42q40 0 68 14q28 16 44 40q18 24 26 54t8 60v516h346v-962h-334q-4 22 -10 88q-28 -52 -78 -76t-108 -24q-52 0 -98 18v-416h-346z" />
<glyph unicode="&#xb6;" horiz-adv-x="1186" d="M52 984q0 110 40 184q42 74 110 116q70 46 160 64q88 18 184 18h86v-766h-86q-96 0 -186 18q-90 16 -160 60q-66 44 -108 118q-40 74 -40 188zM320 -62v566q52 -16 114 -20q60 -4 112 -4h86v-730h-312v188zM750 154v1212h312v-1616h-312v404z" />
<glyph unicode="&#xb7;" horiz-adv-x="598" d="M112 462v372h374v-372h-374z" />
<glyph unicode="&#xb8;" horiz-adv-x="902" d="M200 -438q10 50 32 154q34 -12 72 -22q36 -8 72 -8q16 0 34 2q20 0 36 6q18 6 32 18q12 12 12 30t-12 28t-28 14q-16 6 -34 6q-18 2 -30 2q-74 0 -140 -28q10 48 28 142q88 24 180 24q46 0 90 -10t78 -32q36 -24 56 -60q22 -34 22 -86q0 -58 -26 -98q-24 -42 -66 -68 q-38 -26 -90 -38q-52 -14 -100 -14q-56 0 -110 10q-54 8 -108 28z" />
<glyph unicode="&#xb9;" horiz-adv-x="738" d="M98 1182q62 30 250 122h220v-702h-244v472q-36 -18 -70 -36q-32 -18 -68 -32q-28 58 -88 176z" />
<glyph unicode="&#xba;" horiz-adv-x="866" d="M86 984q0 70 24 134q26 64 70 108q48 48 112 74q64 28 142 28t142 -28q62 -26 108 -74q48 -44 72 -108t24 -134q0 -72 -24 -136t-72 -110q-46 -46 -108 -72q-64 -28 -142 -28t-142 28q-64 26 -112 72q-44 46 -70 110q-24 64 -24 136zM314 984q0 -60 32 -98t88 -38t88 38 q30 38 30 98q0 58 -30 96q-32 38 -88 38t-88 -38t-32 -96z" />
<glyph unicode="&#xbb;" horiz-adv-x="1268" d="M100 84q54 102 214 412q-54 102 -214 408h344l216 -408q-54 -104 -216 -412h-344zM602 84q54 102 214 412q-54 102 -214 408h344l216 -408q-54 -104 -216 -412h-344z" />
<glyph unicode="&#xbc;" horiz-adv-x="1792" d="M40 1182q64 30 250 122h220v-702h-244v472l-68 -36t-68 -32q-30 58 -90 176zM314 0q204 322 814 1290h294q-202 -322 -808 -1290h-300zM1048 118v176q76 102 306 408h258v-408h74v-176h-74v-118h-226v118h-338zM1244 294h142v188q-36 -48 -142 -188z" />
<glyph unicode="&#xbd;" horiz-adv-x="1894" d="M66 1182q62 30 250 122h218v-702h-244v472l-68 -36t-68 -32q-30 58 -88 176zM328 0q204 322 814 1290h294q-202 -322 -808 -1290h-300zM1168 624q74 50 140 74q68 24 150 24q60 0 112 -12q54 -14 92 -40q42 -26 66 -68q24 -40 24 -96q0 -52 -18 -90q-16 -38 -44 -68 q-28 -28 -62 -52t-72 -46q-24 -14 -44 -26q-20 -14 -42 -30h286v-192h-574v128q0 40 20 74q18 36 48 64q30 32 66 56q36 26 70 48q48 30 84 58q38 28 38 58q0 44 -64 44q-70 0 -164 -58q-38 50 -112 150z" />
<glyph unicode="&#xbe;" horiz-adv-x="1894" d="M116 672l114 168q42 -28 92 -46q48 -18 96 -18q34 0 62 14q26 14 26 46q0 38 -30 50t-60 12q-22 0 -50 -4q-26 -4 -54 -12q-18 36 -52 106l200 128h-264v188h520v-156q-36 -28 -146 -116q88 -14 130 -68q44 -54 44 -138q0 -64 -28 -110t-74 -78q-46 -28 -104 -42 t-118 -14q-78 0 -154 24q-78 22 -150 66zM424 0q204 322 816 1290h292q-202 -322 -808 -1290h-300zM1138 120v176q76 102 306 408h258v-408h74v-176h-74v-118h-226v118h-338zM1334 296h142v188q-36 -48 -142 -188z" />
<glyph unicode="&#xbf;" horiz-adv-x="1108" d="M118 -38q0 58 14 104t36 82q22 34 50 62t56 50q32 26 62 50q32 24 58 48q24 28 40 60q14 32 14 76v8h318v-10q0 -72 -14 -124q-12 -52 -36 -94q-22 -38 -50 -66t-56 -50l-52 -40q-26 -18 -46 -38q-18 -18 -30 -40q-14 -22 -14 -50q0 -34 16 -54q16 -22 38 -34t52 -18 q28 -4 52 -4q72 0 140 34t120 88q68 -80 202 -238q-92 -94 -216 -150t-284 -56q-92 0 -176 22t-150 72q-66 48 -104 124q-40 76 -40 186zM434 614v348h350v-348h-350z" />
<glyph unicode="&#xc0;" horiz-adv-x="1442" d="M20 0q126 342 502 1366h416q120 -342 484 -1366h-392q-22 70 -88 282h-456q-24 -70 -90 -282h-376zM358 1788h366q38 -80 150 -320h-262q-64 80 -254 320zM560 546h308q-38 126 -152 502q-38 -124 -156 -502z" />
<glyph unicode="&#xc1;" horiz-adv-x="1442" d="M20 0q126 342 502 1366h416q120 -342 484 -1366h-392q-22 70 -88 282h-456q-24 -70 -90 -282h-376zM560 546h308q-38 126 -152 502q-38 -124 -156 -502zM578 1468q36 80 150 320h366q-64 -80 -254 -320h-262z" />
<glyph unicode="&#xc2;" horiz-adv-x="1442" d="M20 0q126 342 502 1366h416q120 -342 484 -1366h-392q-22 70 -88 282h-456q-24 -70 -90 -282h-376zM352 1468q60 80 238 320h262q60 -80 238 -320h-276q-24 36 -94 140q-22 -36 -94 -140h-274zM560 546h308q-38 126 -152 502q-38 -124 -156 -502z" />
<glyph unicode="&#xc3;" horiz-adv-x="1442" d="M20 0q126 342 502 1366h416q120 -342 484 -1366h-392q-22 70 -88 282h-456q-24 -70 -90 -282h-376zM288 1656q52 56 120 92q70 38 148 38q38 0 72 -14q36 -12 70 -32q36 -16 70 -28q34 -14 74 -14q52 0 102 22q48 20 90 56q40 -62 120 -184q-52 -56 -120 -92 q-70 -38 -148 -38q-38 0 -72 14q-36 12 -70 30t-68 32q-34 12 -74 12q-56 0 -104 -22q-48 -20 -88 -56q-40 62 -122 184zM560 546h308q-38 126 -152 502q-38 -124 -156 -502z" />
<glyph unicode="&#xc4;" horiz-adv-x="1442" d="M20 0q126 342 502 1366h416q120 -342 484 -1366h-392q-22 70 -88 282h-456q-24 -70 -90 -282h-376zM346 1498v262h288v-262h-288zM560 546h308q-38 126 -152 502q-38 -124 -156 -502zM806 1498v262h290v-262h-290z" />
<glyph unicode="&#xc5;" horiz-adv-x="1442" d="M20 0q126 342 502 1366h2q-40 36 -64 90q-24 52 -24 114q0 60 24 112q24 50 62 88q42 38 94 60t112 22q58 0 110 -22t92 -60t64 -90t24 -112t-24 -112q-26 -54 -66 -90h10q120 -342 484 -1366h-392q-22 70 -88 282h-456q-24 -70 -90 -282h-376zM560 546h308 q-38 126 -152 502q-38 -124 -156 -502zM642 1570q0 -36 24 -62q24 -28 62 -28q36 0 60 28q26 26 26 60q0 38 -26 64q-24 26 -60 26q-38 0 -62 -24q-24 -26 -24 -64z" />
<glyph unicode="&#xc6;" horiz-adv-x="1976" d="M0 0q188 342 752 1366h1116v-318h-564v-204h456v-300h-456v-224h606v-320h-946v310h-416q-38 -78 -152 -310h-396zM690 594h274v464h-38q-60 -116 -236 -464z" />
<glyph unicode="&#xc7;" horiz-adv-x="1398" d="M70 680q0 156 50 288q52 132 146 228q94 98 226 152q130 54 288 54q178 0 330 -58q152 -60 256 -208q-80 -80 -240 -242q-56 78 -136 126t-184 48q-86 0 -152 -30q-68 -28 -116 -80q-44 -50 -70 -120q-24 -68 -24 -148q0 -82 26 -152t72 -120q48 -52 114 -80t148 -28 q120 0 194 42q76 42 146 132q82 -78 244 -230q-230 -288 -608 -288q-158 0 -288 52q-132 54 -226 148q-92 94 -144 226q-52 130 -52 288zM526 -442q10 50 32 154q72 -26 146 -26q14 0 34 2q20 0 36 4t28 16q14 10 14 28q0 16 -12 24t-28 12q-14 4 -32 6h-32q-34 0 -70 -4 t-70 -16q8 40 24 122q2 6 4 20q46 12 90 16q46 4 92 4t90 -10q44 -8 78 -28q36 -24 58 -60q22 -34 22 -86q0 -58 -26 -98t-66 -64q-40 -26 -92 -38q-50 -12 -100 -12q-56 0 -112 8q-54 6 -108 26z" />
<glyph unicode="&#xc8;" horiz-adv-x="1214" d="M122 0v854v512h984v-314h-620v-210h510v-296h-510v-232h662v-314h-1026zM304 1788h366q38 -80 150 -320h-262q-64 80 -254 320z" />
<glyph unicode="&#xc9;" horiz-adv-x="1214" d="M122 0v854v512h984v-314h-620v-210h510v-296h-510v-232h662v-314h-1026zM488 1468q36 80 148 320h368q-64 -80 -254 -320h-262z" />
<glyph unicode="&#xca;" horiz-adv-x="1214" d="M122 0v854v512h984v-314h-620v-210h510v-296h-510v-232h662v-314h-1026zM260 1468q60 80 238 320h262q60 -80 238 -320h-278q-22 36 -92 140q-22 -36 -94 -140h-274z" />
<glyph unicode="&#xcb;" horiz-adv-x="1214" d="M122 0v854v512h984v-314h-620v-210h510v-296h-510v-232h662v-314h-1026zM248 1498v262h288v-262h-288zM708 1498v262h290v-262h-290z" />
<glyph unicode="&#xcc;" horiz-adv-x="608" d="M-50 1788h368q36 -80 148 -320h-262q-62 80 -254 320zM122 0v854v512h364v-1366h-364z" />
<glyph unicode="&#xcd;" horiz-adv-x="608" d="M122 0v854v512h364v-1366h-364zM152 1468q36 80 150 320h366q-64 -80 -254 -320h-262z" />
<glyph unicode="&#xce;" horiz-adv-x="608" d="M-62 1468q60 80 238 320h262q60 -80 238 -320h-276q-24 36 -92 140q-24 -36 -96 -140h-274zM122 0v854v512h364v-1366h-364z" />
<glyph unicode="&#xcf;" horiz-adv-x="608" d="M-68 1498v262h290v-262h-290zM122 0v854v512h364v-1366h-364zM394 1498v262h288v-262h-288z" />
<glyph unicode="&#xd0;" horiz-adv-x="1450" d="M0 592v128v56h122v590h526q156 0 292 -40q134 -42 232 -126t154 -214q54 -132 54 -310q0 -170 -56 -296t-154 -212q-98 -84 -234 -126t-290 -42h-524v592h-122zM486 320h146q180 0 276 100q98 102 98 264q0 82 -22 148q-24 68 -70 114q-46 50 -116 76q-68 26 -166 26 h-146v-272h220v-184h-220v-272z" />
<glyph unicode="&#xd1;" horiz-adv-x="1458" d="M122 0v854v512h330q132 -190 524 -762v762h360v-1366h-310l-544 784v-784h-360zM310 1656q50 56 120 92q68 38 146 38q38 0 74 -14q34 -12 68 -32q36 -16 70 -28q36 -14 74 -14q54 0 102 22q48 20 90 56q40 -62 120 -184q-52 -56 -120 -92q-68 -38 -146 -38q-40 0 -74 14 q-36 12 -70 30q-32 18 -68 32q-34 12 -74 12q-54 0 -102 -22q-48 -20 -90 -56q-40 62 -120 184z" />
<glyph unicode="&#xd2;" horiz-adv-x="1560" d="M70 686q0 156 52 288q54 132 148 226q96 96 226 150q130 52 284 52t284 -52q132 -54 226 -150q94 -94 148 -226q52 -132 52 -288t-52 -288q-54 -132 -148 -228q-94 -94 -226 -148q-130 -54 -284 -54t-284 54t-226 148q-94 96 -148 228q-52 132 -52 288zM420 1788h366 q38 -80 150 -320h-262q-64 80 -254 320zM444 686q0 -78 22 -148q24 -70 66 -120q44 -52 106 -82q62 -28 142 -28t142 28q64 30 106 82q44 50 66 120t22 148t-22 148t-66 120q-42 52 -106 82q-62 28 -142 28t-142 -28q-62 -30 -106 -82q-42 -50 -66 -120q-22 -70 -22 -148z " />
<glyph unicode="&#xd3;" horiz-adv-x="1560" d="M70 686q0 156 52 288q54 132 148 226q96 96 226 150q130 52 284 52t284 -52q132 -54 226 -150q94 -94 148 -226q52 -132 52 -288t-52 -288q-54 -132 -148 -228q-94 -94 -226 -148q-130 -54 -284 -54t-284 54t-226 148q-94 96 -148 228q-52 132 -52 288zM444 686 q0 -78 22 -148q24 -70 66 -120q44 -52 106 -82q62 -28 142 -28t142 28q64 30 106 82q44 50 66 120t22 148t-22 148t-66 120q-42 52 -106 82q-62 28 -142 28t-142 -28q-62 -30 -106 -82q-42 -50 -66 -120q-22 -70 -22 -148zM602 1468q38 80 150 320h366q-64 -80 -254 -320 h-262z" />
<glyph unicode="&#xd4;" horiz-adv-x="1560" d="M70 686q0 156 52 288q54 132 148 226q96 96 226 150q130 52 284 52t284 -52q132 -54 226 -150q94 -94 148 -226q52 -132 52 -288t-52 -288q-54 -132 -148 -228q-94 -94 -226 -148q-130 -54 -284 -54t-284 54t-226 148q-94 96 -148 228q-52 132 -52 288zM412 1468 q60 80 238 320h262q58 -80 236 -320h-276q-22 36 -92 140q-24 -36 -94 -140h-274zM444 686q0 -78 22 -148q24 -70 66 -120q44 -52 106 -82q62 -28 142 -28t142 28q64 30 106 82q44 50 66 120t22 148t-22 148t-66 120q-42 52 -106 82q-62 28 -142 28t-142 -28 q-62 -30 -106 -82q-42 -50 -66 -120q-22 -70 -22 -148z" />
<glyph unicode="&#xd5;" horiz-adv-x="1560" d="M70 686q0 156 52 288q54 132 148 226q96 96 226 150q130 52 284 52t284 -52q132 -54 226 -150q94 -94 148 -226q52 -132 52 -288t-52 -288q-54 -132 -148 -228q-94 -94 -226 -148q-130 -54 -284 -54t-284 54t-226 148q-94 96 -148 228q-52 132 -52 288zM348 1656 q52 56 120 92q68 38 146 38q40 0 74 -14q34 -12 70 -32q34 -16 70 -28q34 -14 74 -14q52 0 100 22q48 20 92 56q40 -62 118 -184q-50 -56 -120 -92q-68 -38 -146 -38q-38 0 -74 14q-34 12 -70 30q-32 18 -66 32q-36 12 -74 12q-56 0 -104 -22q-48 -20 -90 -56 q-40 62 -120 184zM444 686q0 -78 22 -148q24 -70 66 -120q44 -52 106 -82q62 -28 142 -28t142 28q64 30 106 82q44 50 66 120t22 148t-22 148t-66 120q-42 52 -106 82q-62 28 -142 28t-142 -28q-62 -30 -106 -82q-42 -50 -66 -120q-22 -70 -22 -148z" />
<glyph unicode="&#xd6;" horiz-adv-x="1560" d="M70 686q0 156 52 288q54 132 148 226q96 96 226 150q130 52 284 52t284 -52q132 -54 226 -150q94 -94 148 -226q52 -132 52 -288t-52 -288q-54 -132 -148 -228q-94 -94 -226 -148q-130 -54 -284 -54t-284 54t-226 148q-94 96 -148 228q-52 132 -52 288zM406 1498v262h288 v-262h-288zM444 686q0 -78 22 -148q24 -70 66 -120q44 -52 106 -82q62 -28 142 -28t142 28q64 30 106 82q44 50 66 120t22 148t-22 148t-66 120q-42 52 -106 82q-62 28 -142 28t-142 -28q-62 -30 -106 -82q-42 -50 -66 -120q-22 -70 -22 -148zM866 1498v262h290v-262h-290z " />
<glyph unicode="&#xd7;" d="M138 400q60 60 244 246l-244 244q46 50 190 194q62 -62 246 -248l248 248q46 -48 190 -194q-62 -60 -246 -244l246 -246q-48 -48 -190 -194q-62 62 -248 246q-62 -60 -246 -246q-48 48 -190 194z" />
<glyph unicode="&#xd8;" horiz-adv-x="1560" d="M70 678q0 156 52 288q54 132 148 226q96 96 226 150q130 52 284 52q94 0 180 -20t160 -60q40 58 116 170q42 -26 162 -106q-30 -44 -120 -174q100 -98 156 -232t56 -294q0 -156 -52 -288q-54 -132 -148 -228q-94 -94 -226 -148q-130 -54 -284 -54q-86 0 -164 16 q-80 18 -150 48q-34 -50 -104 -150q-40 26 -162 104q26 38 106 152q-112 98 -174 236q-62 140 -62 312zM444 678q0 -146 70 -246l408 594q-62 30 -142 30t-142 -28q-62 -30 -106 -82q-42 -52 -66 -120q-22 -70 -22 -148zM668 318q48 -18 112 -18q80 0 142 28q64 30 106 82 q44 50 66 120t22 148q0 118 -52 214q-132 -190 -396 -574z" />
<glyph unicode="&#xd9;" horiz-adv-x="1406" d="M114 532v542v292h364v-800q0 -114 52 -186q52 -70 172 -70q122 0 172 72q52 72 52 184v800h366v-834q0 -130 -42 -236q-44 -106 -124 -180q-78 -72 -184 -112q-108 -38 -238 -38q-128 0 -238 38q-108 40 -188 110q-78 74 -120 180q-44 106 -44 238zM372 1788h368 q36 -80 148 -320h-262q-62 80 -254 320z" />
<glyph unicode="&#xda;" horiz-adv-x="1406" d="M114 532v542v292h364v-800q0 -114 52 -186q52 -70 172 -70q122 0 172 72q52 72 52 184v800h366v-834q0 -130 -42 -236q-44 -106 -124 -180q-78 -72 -184 -112q-108 -38 -238 -38q-128 0 -238 38q-108 40 -188 110q-78 74 -120 180q-44 106 -44 238zM532 1468 q38 80 150 320h366q-62 -80 -254 -320h-262z" />
<glyph unicode="&#xdb;" horiz-adv-x="1406" d="M114 532v542v292h364v-800q0 -114 52 -186q52 -70 172 -70q122 0 172 72q52 72 52 184v800h366v-834q0 -130 -42 -236q-44 -106 -124 -180q-78 -72 -184 -112q-108 -38 -238 -38q-128 0 -238 38q-108 40 -188 110q-78 74 -120 180q-44 106 -44 238zM334 1468 q60 80 238 320h262q58 -80 238 -320h-278q-22 36 -92 140q-24 -36 -94 -140h-274z" />
<glyph unicode="&#xdc;" horiz-adv-x="1406" d="M114 532v542v292h364v-800q0 -114 52 -186q52 -70 172 -70q122 0 172 72q52 72 52 184v800h366v-834q0 -130 -42 -236q-44 -106 -124 -180q-78 -72 -184 -112q-108 -38 -238 -38q-128 0 -238 38q-108 40 -188 110q-78 74 -120 180q-44 106 -44 238zM328 1498v262h288 v-262h-288zM788 1498v262h290v-262h-290z" />
<glyph unicode="&#xdd;" horiz-adv-x="1376" d="M20 1366h416q66 -122 266 -488q62 122 250 488h404q-122 -204 -488 -820v-546h-362v544q-122 206 -486 822zM570 1468q36 80 148 320h368q-64 -80 -254 -320h-262z" />
<glyph unicode="&#xde;" horiz-adv-x="1224" d="M124 0v854v512h356v-210h202q110 0 200 -30q88 -30 152 -88q64 -54 98 -140q36 -84 36 -196q0 -106 -36 -192q-36 -84 -100 -146q-62 -58 -148 -90q-88 -32 -192 -32h-212v-242h-356zM480 528h172q72 0 116 46t44 122q0 78 -42 126q-40 46 -120 46h-170v-340z" />
<glyph unicode="&#xdf;" horiz-adv-x="1296" d="M92 0v590v354q0 118 40 206q38 86 108 142q72 58 168 84t210 26q86 0 168 -18q82 -20 146 -60q64 -42 102 -108q40 -68 40 -162q0 -74 -26 -128q-24 -54 -54 -94q-30 -42 -54 -72q-24 -28 -24 -52q0 -34 30 -52t76 -36q42 -18 84 -40q40 -22 74 -60q34 -34 54 -88 q22 -54 22 -132q0 -82 -36 -146q-34 -62 -92 -102q-56 -42 -128 -64q-70 -20 -144 -20q-90 0 -184 18t-168 72q52 76 154 228q34 -26 76 -42q40 -16 84 -16q38 0 72 16q36 18 36 62q0 24 -14 42q-14 16 -40 30q-22 16 -52 26q-32 12 -64 26q-34 14 -64 32q-32 20 -58 46 q-24 28 -40 68q-14 38 -14 92q0 62 26 110q26 50 58 90q32 44 58 82q28 38 28 76q0 60 -42 86t-96 26q-92 0 -132 -60q-42 -62 -42 -146v-932h-346z" />
<glyph unicode="&#xe0;" horiz-adv-x="1080" d="M48 258q0 86 36 152q36 68 100 110q64 46 148 68t176 22q48 0 74 -2q28 -2 64 -6v18q0 38 -16 60q-16 24 -40 36q-22 16 -50 20q-28 6 -54 6q-92 0 -162 -24t-114 -54q-42 66 -130 198q62 50 172 90q110 42 282 42q100 0 182 -26t142 -80q60 -50 92 -128q34 -76 34 -178 v-582h-326q-4 22 -12 90q-66 -70 -132 -96q-68 -26 -166 -26q-46 0 -100 12q-54 14 -98 46q-46 34 -74 90t-28 142zM270 1396h326q24 -72 98 -290h-240q-46 72 -184 290zM382 310q0 -108 116 -108q26 0 52 8q28 8 48 24q20 18 34 46q14 30 14 72v64q-36 8 -96 8 q-86 0 -126 -34q-42 -34 -42 -80z" />
<glyph unicode="&#xe1;" horiz-adv-x="1080" d="M48 258q0 86 36 152q36 68 100 110q64 46 148 68t176 22q48 0 74 -2q28 -2 64 -6v18q0 38 -16 60q-16 24 -40 36q-22 16 -50 20q-28 6 -54 6q-92 0 -162 -24t-114 -54q-42 66 -130 198q62 50 172 90q110 42 282 42q100 0 182 -26t142 -80q60 -50 92 -128q34 -76 34 -178 v-582h-326q-4 22 -12 90q-66 -70 -132 -96q-68 -26 -166 -26q-46 0 -100 12q-54 14 -98 46q-46 34 -74 90t-28 142zM380 1106q26 72 100 290h324q-46 -72 -184 -290h-240zM382 310q0 -108 116 -108q26 0 52 8q28 8 48 24q20 18 34 46q14 30 14 72v64q-36 8 -96 8 q-86 0 -126 -34q-42 -34 -42 -80z" />
<glyph unicode="&#xe2;" horiz-adv-x="1080" d="M48 258q0 86 36 152q36 68 100 110q64 46 148 68t176 22q48 0 74 -2q28 -2 64 -6v18q0 38 -16 60q-16 24 -40 36q-22 16 -50 20q-28 6 -54 6q-92 0 -162 -24t-114 -54q-42 66 -130 198q62 50 172 90q110 42 282 42q100 0 182 -26t142 -80q60 -50 92 -128q34 -76 34 -178 v-582h-326q-4 22 -12 90q-66 -70 -132 -96q-68 -26 -166 -26q-46 0 -100 12q-54 14 -98 46q-46 34 -74 90t-28 142zM186 1106q56 72 222 290h270q54 -72 220 -290h-274q-20 30 -84 116q-20 -28 -80 -116h-274zM382 310q0 -108 116 -108q26 0 52 8q28 8 48 24q20 18 34 46 q14 30 14 72v64q-36 8 -96 8q-86 0 -126 -34q-42 -34 -42 -80z" />
<glyph unicode="&#xe3;" horiz-adv-x="1080" d="M48 258q0 86 36 152q36 68 100 110q64 46 148 68t176 22q48 0 74 -2q28 -2 64 -6v18q0 38 -16 60q-16 24 -40 36q-22 16 -50 20q-28 6 -54 6q-92 0 -162 -24t-114 -54q-42 66 -130 198q62 50 172 90q110 42 282 42q100 0 182 -26t142 -80q60 -50 92 -128q34 -76 34 -178 v-582h-326q-4 22 -12 90q-66 -70 -132 -96q-68 -26 -166 -26q-46 0 -100 12q-54 14 -98 46q-46 34 -74 90t-28 142zM112 1280q52 56 118 92q66 34 142 34q40 0 74 -12q34 -14 66 -30q34 -16 70 -30q34 -14 72 -14q52 0 100 22q46 22 88 54q38 -60 116 -180q-48 -52 -116 -88 t-144 -36q-36 0 -72 12l-68 28q-34 16 -68 30t-72 14q-54 0 -100 -22q-48 -22 -88 -54q-40 60 -118 180zM382 310q0 -108 116 -108q26 0 52 8q28 8 48 24q20 18 34 46q14 30 14 72v64q-36 8 -96 8q-86 0 -126 -34q-42 -34 -42 -80z" />
<glyph unicode="&#xe4;" horiz-adv-x="1080" d="M48 258q0 86 36 152q36 68 100 110q64 46 148 68t176 22q48 0 74 -2q28 -2 64 -6v18q0 38 -16 60q-16 24 -40 36q-22 16 -50 20q-28 6 -54 6q-92 0 -162 -24t-114 -54q-42 66 -130 198q62 50 172 90q110 42 282 42q100 0 182 -26t142 -80q60 -50 92 -128q34 -76 34 -178 v-582h-326q-4 22 -12 90q-66 -70 -132 -96q-68 -26 -166 -26q-46 0 -100 12q-54 14 -98 46q-46 34 -74 90t-28 142zM194 1128v246h268v-246h-268zM382 310q0 -108 116 -108q26 0 52 8q28 8 48 24q20 18 34 46q14 30 14 72v64q-36 8 -96 8q-86 0 -126 -34q-42 -34 -42 -80z M606 1128v246h268v-246h-268z" />
<glyph unicode="&#xe5;" horiz-adv-x="1080" d="M48 258q0 86 36 152q36 68 100 110q64 46 148 68t176 22q48 0 74 -2q28 -2 64 -6v18q0 38 -16 60q-16 24 -40 36q-22 16 -50 20q-28 6 -54 6q-92 0 -162 -24t-114 -54q-42 66 -130 198q62 50 172 90q110 42 282 42q100 0 182 -26t142 -80q60 -50 92 -128q34 -76 34 -178 v-582h-326q-4 22 -12 90q-66 -70 -132 -96q-68 -26 -166 -26q-46 0 -100 12q-54 14 -98 46q-46 34 -74 90t-28 142zM282 1324q0 52 22 98q20 44 52 76q36 32 82 50t96 18q52 0 98 -18t78 -50q36 -32 56 -76q20 -46 20 -98q0 -54 -20 -98t-56 -78q-32 -32 -78 -50t-98 -18 q-50 0 -96 18t-82 50q-32 34 -52 78q-22 44 -22 98zM382 310q0 -108 116 -108q26 0 52 8q28 8 48 24q20 18 34 46q14 30 14 72v64q-36 8 -96 8q-86 0 -126 -34q-42 -34 -42 -80zM456 1324q0 -34 24 -56q22 -22 54 -22q34 0 56 22t22 56q0 32 -22 56q-22 22 -56 22 q-32 0 -54 -22q-24 -22 -24 -56z" />
<glyph unicode="&#xe6;" horiz-adv-x="1666" d="M48 266q0 86 36 150q36 66 100 108q64 44 148 64q84 22 176 22q48 0 74 -2q28 -2 64 -6v18q0 38 -16 60q-16 24 -40 36q-22 16 -50 20q-28 6 -54 6q-92 0 -162 -24t-114 -54q-42 66 -130 198q66 52 172 92q108 40 270 40q104 0 180 -30q74 -28 126 -80q56 54 134 82 q76 30 194 30q98 0 182 -34t142 -104q62 -68 96 -170q36 -104 36 -244v-66h-652q2 -24 14 -50t38 -52q28 -22 74 -36t114 -14q88 0 160 22q74 22 114 46q36 -74 110 -224q-26 -14 -64 -32t-88 -34q-52 -14 -116 -26q-62 -10 -134 -10q-136 0 -230 34t-156 102 q-86 -76 -176 -106q-92 -30 -202 -30q-70 0 -136 14t-120 46q-52 36 -84 94q-30 58 -30 144zM382 310q0 -108 116 -108q26 0 52 8q28 8 48 24q20 18 34 46q14 30 14 72v64q-36 8 -96 8q-86 0 -126 -34q-42 -34 -42 -80zM962 584h342q0 54 -40 104q-42 50 -130 50 q-42 0 -76 -16q-32 -16 -54 -38q-20 -22 -32 -50q-10 -26 -10 -50z" />
<glyph unicode="&#xe7;" horiz-adv-x="990" d="M60 484q0 108 40 202q40 92 108 162q72 70 168 108q96 40 204 40q142 0 240 -46q98 -44 158 -114q-66 -78 -202 -232q-22 26 -64 58q-40 30 -122 30q-72 0 -128 -56q-54 -56 -54 -152q0 -48 14 -88q16 -40 40 -68q26 -26 58 -42t70 -16t70 10q30 8 52 24q24 14 38 28 l26 26q68 -76 202 -232q-26 -30 -64 -58q-40 -30 -90 -52t-112 -36q-60 -12 -132 -12q-108 0 -204 36t-168 104q-68 68 -108 164q-40 94 -40 212zM344 -438q10 50 30 154q36 -12 72 -22q38 -8 74 -8q14 0 34 2q20 0 36 6q18 6 30 18t12 30t-10 28q-12 10 -28 14q-16 6 -34 6 q-20 2 -32 2q-74 0 -138 -28q8 48 28 142q88 24 180 24q46 0 90 -10t78 -32q34 -24 56 -60q22 -34 22 -86q0 -58 -26 -98q-26 -42 -66 -68t-90 -38q-52 -14 -100 -14q-56 0 -110 10q-54 8 -108 28z" />
<glyph unicode="&#xe8;" horiz-adv-x="1092" d="M60 478q0 96 30 188q30 94 92 166q64 74 158 118q96 46 224 46q98 0 184 -34q88 -34 152 -104q64 -68 102 -170q36 -104 36 -244v-66h-650q2 -24 12 -50q12 -26 38 -52q28 -22 76 -36q46 -14 112 -14q88 0 162 22q72 22 114 46q36 -74 108 -224q-24 -14 -62 -32t-90 -34 q-52 -14 -114 -26q-64 -10 -136 -10q-266 0 -408 134q-140 134 -140 376zM284 1396h326q24 -72 98 -290h-240q-46 72 -184 290zM390 584h342q0 24 -12 50q-10 28 -32 50q-20 22 -52 38t-76 16t-76 -16q-34 -16 -54 -38t-30 -50q-10 -26 -10 -50z" />
<glyph unicode="&#xe9;" horiz-adv-x="1092" d="M60 478q0 96 30 188q30 94 92 166q64 74 158 118q96 46 224 46q98 0 184 -34q88 -34 152 -104q64 -68 102 -170q36 -104 36 -244v-66h-650q2 -24 12 -50q12 -26 38 -52q28 -22 76 -36q46 -14 112 -14q88 0 162 22q72 22 114 46q36 -74 108 -224q-24 -14 -62 -32t-90 -34 q-52 -14 -114 -26q-64 -10 -136 -10q-266 0 -408 134q-140 134 -140 376zM390 584h342q0 24 -12 50q-10 28 -32 50q-20 22 -52 38t-76 16t-76 -16q-34 -16 -54 -38t-30 -50q-10 -26 -10 -50zM428 1106q24 72 98 290h326q-46 -72 -184 -290h-240z" />
<glyph unicode="&#xea;" horiz-adv-x="1092" d="M60 478q0 96 30 188q30 94 92 166q64 74 158 118q96 46 224 46q98 0 184 -34q88 -34 152 -104q64 -68 102 -170q36 -104 36 -244v-66h-650q2 -24 12 -50q12 -26 38 -52q28 -22 76 -36q46 -14 112 -14q88 0 162 22q72 22 114 46q36 -74 108 -224q-24 -14 -62 -32t-90 -34 q-52 -14 -114 -26q-64 -10 -136 -10q-266 0 -408 134q-140 134 -140 376zM194 1106q56 72 222 290h270q54 -72 220 -290h-274q-20 30 -84 116q-20 -28 -80 -116h-274zM390 584h342q0 24 -12 50q-10 28 -32 50q-20 22 -52 38t-76 16t-76 -16q-34 -16 -54 -38t-30 -50 q-10 -26 -10 -50z" />
<glyph unicode="&#xeb;" horiz-adv-x="1092" d="M60 478q0 96 30 188q30 94 92 166q64 74 158 118q96 46 224 46q98 0 184 -34q88 -34 152 -104q64 -68 102 -170q36 -104 36 -244v-66h-650q2 -24 12 -50q12 -26 38 -52q28 -22 76 -36q46 -14 112 -14q88 0 162 22q72 22 114 46q36 -74 108 -224q-24 -14 -62 -32t-90 -34 q-52 -14 -114 -26q-64 -10 -136 -10q-266 0 -408 134q-140 134 -140 376zM208 1128v246h270v-246h-270zM390 584h342q0 24 -12 50q-10 28 -32 50q-20 22 -52 38t-76 16t-76 -16q-34 -16 -54 -38t-30 -50q-10 -26 -10 -50zM620 1128v246h268v-246h-268z" />
<glyph unicode="&#xec;" horiz-adv-x="560" d="M-10 1396h326q24 -72 98 -290h-240q-46 72 -184 290zM106 0v362v600h346v-962h-346z" />
<glyph unicode="&#xed;" horiz-adv-x="560" d="M106 0v362v600h346v-962h-346zM148 1106q24 72 98 290h326q-46 -72 -184 -290h-240z" />
<glyph unicode="&#xee;" horiz-adv-x="560" d="M-74 1106q56 72 222 290h270q54 -72 218 -290h-272q-20 30 -84 116q-20 -28 -80 -116h-274zM106 0v362v600h346v-962h-346z" />
<glyph unicode="&#xef;" horiz-adv-x="560" d="M-60 1128v62v184h268v-246h-268zM106 0v362v600h346v-962h-346zM352 1128v246h268v-246h-268z" />
<glyph unicode="&#xf0;" horiz-adv-x="1154" d="M60 448q0 104 38 188q40 84 104 144q66 62 152 94q86 34 182 34q38 0 84 -8q48 -8 84 -18q-22 48 -68 106q-46 56 -138 106q-32 -48 -94 -142q-34 24 -138 96q18 28 72 108q-32 8 -68 14q-34 6 -76 12q16 74 46 220q66 -4 126 -12q60 -10 116 -22l78 114l136 -96 q-12 -18 -50 -76q130 -58 216 -144q86 -84 138 -182q50 -98 72 -202t22 -198q0 -146 -38 -260q-38 -116 -110 -194q-70 -78 -170 -120t-226 -42q-104 0 -194 34t-158 98q-64 64 -102 152q-36 90 -36 196zM388 456q0 -36 12 -70q14 -34 36 -60q22 -24 56 -40q32 -16 72 -16 q50 0 88 18q38 20 60 50q26 32 36 74q12 42 12 92q0 58 -6 106q-72 44 -160 44q-82 0 -144 -48q-62 -46 -62 -150z" />
<glyph unicode="&#xf1;" horiz-adv-x="1174" d="M100 0v602v360h334q4 -24 12 -100q30 36 66 60t76 38q38 14 74 20q36 8 62 8q76 0 142 -22q64 -22 110 -68q48 -46 74 -118q28 -74 28 -174v-606h-346v524q0 72 -30 114q-30 44 -96 44q-46 0 -78 -14q-30 -14 -48 -40q-20 -24 -26 -54q-8 -30 -8 -60v-514h-346zM144 1280 q50 56 118 92q66 34 142 34q38 0 72 -12q34 -14 66 -30q36 -16 70 -30q36 -14 72 -14q54 0 100 22q48 22 88 54q40 -60 118 -180q-50 -52 -118 -88t-142 -36q-38 0 -72 12q-36 14 -70 28q-32 16 -66 30t-74 14q-52 0 -100 -22q-46 -22 -88 -54q-38 60 -116 180z" />
<glyph unicode="&#xf2;" horiz-adv-x="1146" d="M60 482q0 106 38 200t104 164q68 70 162 110t210 40q114 0 208 -40t162 -110t106 -164t38 -200q0 -110 -38 -202q-38 -94 -106 -164q-68 -68 -162 -108t-208 -40q-116 0 -210 40t-162 108q-66 70 -104 164q-38 92 -38 202zM294 1396h326q26 -72 98 -290h-238 q-46 72 -186 290zM386 482q0 -92 50 -152q52 -60 138 -60t136 60q52 60 52 152t-52 150q-50 60 -136 60t-138 -60q-50 -58 -50 -150z" />
<glyph unicode="&#xf3;" horiz-adv-x="1146" d="M60 482q0 106 38 200t104 164q68 70 162 110t210 40q114 0 208 -40t162 -110t106 -164t38 -200q0 -110 -38 -202q-38 -94 -106 -164q-68 -68 -162 -108t-208 -40q-116 0 -210 40t-162 108q-66 70 -104 164q-38 92 -38 202zM386 482q0 -92 50 -152q52 -60 138 -60t136 60 q52 60 52 152t-52 150q-50 60 -136 60t-138 -60q-50 -58 -50 -150zM418 1106q24 72 98 290h326q-46 -72 -184 -290h-240z" />
<glyph unicode="&#xf4;" horiz-adv-x="1146" d="M60 482q0 106 38 200t104 164q68 70 162 110t210 40q114 0 208 -40t162 -110t106 -164t38 -200q0 -110 -38 -202q-38 -94 -106 -164q-68 -68 -162 -108t-208 -40q-116 0 -210 40t-162 108q-66 70 -104 164q-38 92 -38 202zM220 1106q54 72 220 290h270q56 -72 220 -290 h-272q-22 30 -84 116q-20 -28 -80 -116h-274zM386 482q0 -92 50 -152q52 -60 138 -60t136 60q52 60 52 152t-52 150q-50 60 -136 60t-138 -60q-50 -58 -50 -150z" />
<glyph unicode="&#xf5;" horiz-adv-x="1146" d="M60 482q0 106 38 200t104 164q68 70 162 110t210 40q114 0 208 -40t162 -110t106 -164t38 -200q0 -110 -38 -202q-38 -94 -106 -164q-68 -68 -162 -108t-208 -40q-116 0 -210 40t-162 108q-66 70 -104 164q-38 92 -38 202zM152 1280q50 56 118 92q66 34 142 34 q38 0 72 -12q34 -14 66 -30q36 -16 70 -30q36 -14 72 -14q54 0 100 22q48 22 88 54q40 -60 118 -180q-50 -52 -118 -88q-66 -36 -142 -36q-38 0 -72 12q-36 14 -70 28q-32 16 -66 30t-74 14q-52 0 -100 -22q-46 -22 -88 -54q-38 60 -116 180zM386 482q0 -92 50 -152 q52 -60 138 -60t136 60q52 60 52 152t-52 150q-50 60 -136 60t-138 -60q-50 -58 -50 -150z" />
<glyph unicode="&#xf6;" horiz-adv-x="1146" d="M60 482q0 106 38 200t104 164q68 70 162 110t210 40q114 0 208 -40t162 -110t106 -164t38 -200q0 -110 -38 -202q-38 -94 -106 -164q-68 -68 -162 -108t-208 -40q-116 0 -210 40t-162 108q-66 70 -104 164q-38 92 -38 202zM234 1128v246h268v-246h-268zM386 482 q0 -92 50 -152q52 -60 138 -60t136 60q52 60 52 152t-52 150q-50 60 -136 60t-138 -60q-50 -58 -50 -150zM646 1128v246h268v-246h-268z" />
<glyph unicode="&#xf7;" d="M166 512v270h818v-270h-818zM422 132v278h306v-278h-306zM422 884v280h306v-280h-306z" />
<glyph unicode="&#xf8;" horiz-adv-x="1146" d="M60 482q0 106 38 200t104 164q68 70 162 110t210 40q124 0 224 -48q28 40 82 116q34 -22 132 -92q-20 -28 -80 -114q74 -72 114 -168q42 -96 42 -208q0 -110 -38 -202q-38 -94 -106 -164q-68 -68 -162 -108t-208 -40q-64 0 -122 12q-56 12 -106 34q-28 -40 -86 -122 q-32 22 -130 92q20 30 82 120q-70 72 -112 168q-40 96 -40 210zM374 482q0 -62 24 -112q76 110 226 326q-24 6 -50 6q-92 0 -146 -62t-54 -158zM520 266q24 -6 54 -6q92 0 144 62q54 64 54 160q0 62 -24 110q-76 -108 -228 -326z" />
<glyph unicode="&#xf9;" horiz-adv-x="1170" d="M96 354v262v346h346v-526q0 -72 30 -114q30 -44 106 -44q40 0 68 14q28 16 44 40q18 24 26 54q6 30 6 60v516h348v-962h-334q-4 24 -14 98q-28 -34 -64 -60q-38 -24 -76 -38q-40 -14 -76 -20q-34 -6 -62 -6q-76 0 -138 20q-64 22 -112 68q-44 46 -72 118q-26 72 -26 174z M326 1396h326q24 -72 98 -290h-240q-46 72 -184 290z" />
<glyph unicode="&#xfa;" horiz-adv-x="1170" d="M96 354v262v346h346v-526q0 -72 30 -114q30 -44 106 -44q40 0 68 14q28 16 44 40q18 24 26 54q6 30 6 60v516h348v-962h-334q-4 24 -14 98q-28 -34 -64 -60q-38 -24 -76 -38q-40 -14 -76 -20q-34 -6 -62 -6q-76 0 -138 20q-64 22 -112 68q-44 46 -72 118q-26 72 -26 174z M442 1106q24 72 98 290h326q-46 -72 -184 -290h-240z" />
<glyph unicode="&#xfb;" horiz-adv-x="1170" d="M96 354v262v346h346v-526q0 -72 30 -114q30 -44 106 -44q40 0 68 14q28 16 44 40q18 24 26 54q6 30 6 60v516h348v-962h-334q-4 24 -14 98q-28 -34 -64 -60q-38 -24 -76 -38q-40 -14 -76 -20q-34 -6 -62 -6q-76 0 -138 20q-64 22 -112 68q-44 46 -72 118q-26 72 -26 174z M230 1106q54 72 220 290h270q56 -72 220 -290h-272q-22 30 -84 116q-20 -28 -80 -116h-274z" />
<glyph unicode="&#xfc;" horiz-adv-x="1170" d="M96 354v262v346h346v-526q0 -72 30 -114q30 -44 106 -44q40 0 68 14q28 16 44 40q18 24 26 54q6 30 6 60v516h348v-962h-334q-4 24 -14 98q-28 -34 -64 -60q-38 -24 -76 -38q-40 -14 -76 -20q-34 -6 -62 -6q-76 0 -138 20q-64 22 -112 68q-44 46 -72 118q-26 72 -26 174z M244 1128v246h268v-246h-268zM656 1128v246h268v-246h-268z" />
<glyph unicode="&#xfd;" horiz-adv-x="1174" d="M10 962h394q50 -138 204 -556q48 138 194 556h362q-96 -236 -384 -948q-36 -90 -72 -170q-36 -82 -88 -144q-48 -60 -120 -98q-72 -36 -178 -36q-76 0 -148 22q-72 20 -138 66q44 78 130 236q28 -22 66 -36q36 -14 64 -14q48 0 78 18q32 18 54 76q10 26 28 78 q-110 238 -446 950zM466 1106q26 72 100 290h324q-46 -72 -184 -290h-240z" />
<glyph unicode="&#xfe;" horiz-adv-x="1166" d="M100 -410v1110v666h344v-504q28 40 62 62q34 24 68 36t64 16t50 4q100 0 180 -38q78 -40 130 -108q52 -66 80 -152t28 -180q0 -128 -38 -226q-40 -98 -110 -166q-70 -66 -162 -102q-94 -36 -200 -36q-46 0 -88 8t-64 14v-404h-344zM446 274q48 -20 122 -20q84 0 136 54 q54 54 54 180q0 32 -8 68t-28 64q-18 30 -46 48t-68 18q-86 0 -124 -54q-38 -52 -38 -132v-226z" />
<glyph unicode="&#xff;" horiz-adv-x="1174" d="M10 962h394q50 -138 204 -556q48 138 194 556h362q-96 -236 -384 -948q-36 -90 -72 -170q-36 -82 -88 -144q-48 -60 -120 -98q-72 -36 -178 -36q-76 0 -148 22q-72 20 -138 66q44 78 130 236q28 -22 66 -36q36 -14 64 -14q48 0 78 18q32 18 54 76q10 26 28 78 q-110 238 -446 950zM246 1128v246h268v-246h-268zM658 1128v246h268v-246h-268z" />
<glyph unicode="&#x2c6;" horiz-adv-x="902" d="M96 1106q56 72 222 290h270q54 -72 218 -290h-272q-20 30 -84 116q-20 -28 -80 -116h-274z" />
<glyph unicode="&#x2dc;" horiz-adv-x="902" d="M28 1280q52 56 118 92q66 34 142 34q40 0 74 -12q34 -14 66 -30q34 -16 70 -30q34 -14 72 -14q52 0 100 22q46 22 88 54q38 -60 116 -180q-48 -52 -116 -88t-144 -36q-36 0 -72 12l-68 28q-34 16 -68 30t-72 14q-54 0 -100 -22q-48 -22 -88 -54q-40 60 -118 180z" />
<glyph unicode="&#x2000;" horiz-adv-x="926" />
<glyph unicode="&#x2001;" horiz-adv-x="1852" />
<glyph unicode="&#x2002;" horiz-adv-x="926" />
<glyph unicode="&#x2003;" horiz-adv-x="1852" />
<glyph unicode="&#x2004;" horiz-adv-x="617" />
<glyph unicode="&#x2005;" horiz-adv-x="463" />
<glyph unicode="&#x2006;" horiz-adv-x="308" />
<glyph unicode="&#x2007;" horiz-adv-x="308" />
<glyph unicode="&#x2008;" horiz-adv-x="231" />
<glyph unicode="&#x2009;" horiz-adv-x="370" />
<glyph unicode="&#x200a;" horiz-adv-x="102" />
<glyph unicode="&#x2010;" horiz-adv-x="922" d="M122 408v332h676v-332h-676z" />
<glyph unicode="&#x2011;" horiz-adv-x="922" d="M122 408v332h676v-332h-676z" />
<glyph unicode="&#x2012;" horiz-adv-x="922" d="M122 408v332h676v-332h-676z" />
<glyph unicode="&#x2013;" horiz-adv-x="1024" d="M0 408v232v100h1024v-332h-1024z" />
<glyph unicode="&#x2014;" horiz-adv-x="2048" d="M0 408v232v100h2048v-332h-2048z" />
<glyph unicode="&#x2018;" horiz-adv-x="604" d="M82 858q40 128 158 508h256q-14 -126 -54 -508h-360z" />
<glyph unicode="&#x2019;" horiz-adv-x="604" d="M106 858q14 128 54 508h360q-40 -126 -158 -508h-256z" />
<glyph unicode="&#x201a;" horiz-adv-x="632" d="M116 -166q14 128 54 508h360q-38 -126 -158 -508h-256z" />
<glyph unicode="&#x201c;" horiz-adv-x="1060" d="M82 858q40 128 158 508h256q-14 -126 -54 -508h-360zM538 858q40 128 158 508h256q-12 -126 -52 -508h-362z" />
<glyph unicode="&#x201d;" horiz-adv-x="1060" d="M106 858q14 128 54 508h360q-40 -126 -158 -508h-256zM564 858q12 128 52 508h360q-38 -126 -156 -508h-256z" />
<glyph unicode="&#x201e;" horiz-adv-x="1092" d="M116 -166q14 128 54 508h360q-38 -126 -158 -508h-256zM576 -166q12 128 52 508h362q-40 -126 -158 -508h-256z" />
<glyph unicode="&#x2022;" horiz-adv-x="904" d="M144 680q0 64 24 120t66 98q40 40 96 64q58 26 120 26q64 0 120 -26q56 -24 98 -64q42 -42 68 -98q24 -56 24 -120t-24 -120q-26 -56 -68 -98q-42 -40 -98 -64q-56 -26 -120 -26q-62 0 -120 26q-56 24 -96 64q-42 42 -66 98t-24 120z" />
<glyph unicode="&#x2026;" horiz-adv-x="1868" d="M112 0v370h374v-370h-374zM748 0v370h372v-370h-372zM1382 0v370h374v-370h-374z" />
<glyph unicode="&#x202f;" horiz-adv-x="370" />
<glyph unicode="&#x2039;" horiz-adv-x="764" d="M98 496l216 408h344q-54 -102 -214 -408q54 -104 214 -412h-344q-54 102 -216 412z" />
<glyph unicode="&#x203a;" horiz-adv-x="764" d="M106 84q54 102 214 412q-54 102 -214 408h344l216 -408q-54 -104 -216 -412h-344z" />
<glyph unicode="&#x205f;" horiz-adv-x="463" />
<glyph unicode="&#x20ac;" horiz-adv-x="1210" d="M4 436q16 44 64 178h130q-2 12 -2 72v58h-168q16 44 64 178h132q54 232 200 356q148 124 364 124q122 0 228 -42q106 -44 176 -118q-60 -78 -180 -230q-40 38 -96 64q-56 24 -108 24q-78 0 -138 -46t-86 -132h358q-16 -44 -64 -178h-326q-4 -26 -4 -60q0 -36 4 -70h366 q-16 -44 -64 -178h-264q28 -82 84 -124q58 -44 134 -44q60 0 116 22q54 24 94 62q58 -74 174 -226q-70 -74 -176 -118q-106 -42 -228 -42q-212 0 -358 122q-148 122 -202 348h-224z" />
<glyph unicode="&#x2122;" horiz-adv-x="1836" d="M58 1158v208h740v-208h-246v-576h-248v576h-246zM850 582q10 196 36 784h224q48 -80 188 -324q48 82 190 324h224q10 -196 36 -784h-232q-6 102 -20 412q-32 -58 -128 -230h-136q-34 58 -136 230q-4 -104 -14 -412h-232z" />
<glyph unicode="&#x25fc;" horiz-adv-x="960" d="M0 0v960h960v-960h-960z" />
<glyph unicode="&#xfb01;" horiz-adv-x="1240" d="M30 696v168v98h148v12q0 86 28 156t66 118q70 84 180 120q112 34 234 34q116 0 226 -26t188 -74q-42 -76 -126 -230q-64 28 -132 48q-66 18 -138 18q-36 0 -70 -6q-32 -8 -56 -26q-26 -16 -40 -46q-14 -28 -14 -70v-28h608v-962h-346v696h-262v-696h-346v696h-148z" />
<glyph unicode="&#xfb02;" horiz-adv-x="1232" d="M30 696v168v98h148v18q0 118 42 198q42 82 114 130q72 52 166 74q94 20 198 20q110 0 226 -24q114 -26 208 -86v-1292h-346v1120q-22 10 -50 14q-30 2 -54 2q-72 0 -114 -34q-44 -34 -44 -108v-32h162v-266h-162v-696h-346v696h-148z" />
<glyph unicode="&#xfb03;" horiz-adv-x="1876" d="M30 696v168v98h148v12q0 214 124 326q52 50 128 76q74 26 170 26q64 0 124 -16q62 -18 112 -52q-38 -78 -112 -234q-52 30 -96 30q-14 0 -32 -4q-18 -6 -34 -20q-18 -12 -28 -36q-12 -26 -12 -62v-46h294v12q0 86 26 156q28 70 68 118q68 84 180 120q110 34 234 34 q116 0 226 -26q108 -26 186 -74q-40 -76 -124 -230q-66 28 -132 48q-66 18 -138 18q-38 0 -70 -6q-32 -8 -58 -26q-24 -16 -38 -46q-14 -28 -14 -70v-28h608v-962h-346v696h-262v-696h-346v696h-290v-696h-348v696h-148z" />
<glyph unicode="&#xfb04;" horiz-adv-x="1870" d="M30 696v168v98h148v12q0 214 124 326q52 50 128 76q74 26 170 26q64 0 124 -16q62 -18 112 -52q-38 -78 -112 -234q-52 30 -96 30q-14 0 -32 -4q-18 -6 -34 -20q-18 -12 -28 -36q-12 -26 -12 -62v-46h294v18q0 118 42 198q42 82 112 130q72 52 166 74q94 20 200 20 q110 0 224 -24q116 -26 210 -86v-1292h-346v1120q-24 10 -52 14q-28 2 -54 2q-70 0 -114 -34q-42 -34 -42 -108v-32h162v-266h-162v-696h-346v696h-290v-696h-348v696h-148z" />
</font>
</defs>
</svg>
