<?xml version="1.0" standalone="no"?>
<!DOCTYPE svg PUBLIC "-//W3C//DTD SVG 1.1//EN" "http://www.w3.org/Graphics/SVG/1.1/DTD/svg11.dtd" >
<svg xmlns="http://www.w3.org/2000/svg">
<metadata></metadata>
<defs>
<font id="tnl_effraregular" horiz-adv-x="1116" >
<font-face units-per-em="2048" ascent="1638" descent="-410" />
<missing-glyph horiz-adv-x="370" />
<glyph horiz-adv-x="0" />
<glyph horiz-adv-x="0" />
<glyph unicode="&#xd;" horiz-adv-x="0" />
<glyph unicode=" "  horiz-adv-x="370" />
<glyph unicode="&#x09;" horiz-adv-x="370" />
<glyph unicode="&#xa0;" horiz-adv-x="370" />
<glyph unicode="!" horiz-adv-x="528" d="M146 0v56v168h230v-224h-230zM160 1366h206q-2 -244 -6 -974h-194q-2 244 -6 974z" />
<glyph unicode="&#x22;" horiz-adv-x="744" d="M130 912v114v340h176v-454h-176zM448 912v454h176v-454h-176z" />
<glyph unicode="#" horiz-adv-x="1546" d="M134 336v146h282q22 80 84 316h-244v146h282q24 84 92 336h168q-24 -84 -92 -336h304q22 84 90 336h168q-22 -84 -90 -336h232v-146h-274q-20 -80 -80 -316h230v-146h-272q-22 -84 -90 -336h-166q22 84 90 336h-304q-24 -84 -90 -336h-166l88 336h-242zM582 482h306 q20 80 82 316h-304q-22 -80 -84 -316z" />
<glyph unicode="%" horiz-adv-x="1826" d="M96 956q0 182 88 276q90 94 230 94q70 0 128 -24t100 -70t66 -114q22 -70 22 -162q0 -182 -88 -276q-90 -94 -228 -94q-140 0 -228 94q-90 94 -90 276zM254 956q0 -68 14 -114q14 -44 36 -74q24 -30 52 -42t58 -12q28 0 56 12t50 42q24 30 36 76q14 44 14 112t-14 114 q-12 46 -36 74q-22 26 -50 40q-28 12 -56 12q-30 0 -58 -12q-28 -14 -52 -40q-22 -28 -36 -74t-14 -114zM406 0q208 322 828 1290h176q-208 -322 -830 -1290h-174zM1094 354q0 182 90 276q88 92 228 92q70 0 128 -22q58 -24 100 -70t66 -114q22 -68 22 -162q0 -182 -88 -276 t-228 -94t-228 94q-90 94 -90 276zM1252 354q0 -68 14 -114t38 -74q22 -30 50 -42q30 -12 58 -12t56 12t50 42q24 28 38 74q12 48 12 114q0 68 -12 114q-14 46 -38 74q-22 26 -50 40q-28 12 -56 12t-58 -12q-28 -14 -50 -40q-24 -28 -38 -74t-14 -114z" />
<glyph unicode="&#x26;" horiz-adv-x="1306" d="M76 346q0 128 70 234q70 104 212 202q-8 10 -24 32q-48 60 -76 126q-26 66 -26 140q0 60 24 118t72 104q46 46 112 72q68 26 154 26q78 0 134 -18q56 -20 98 -52t70 -72t48 -82q-46 -30 -136 -88q-54 90 -102 120q-50 32 -102 32q-88 0 -132 -48q-46 -48 -46 -112 q0 -54 30 -106t80 -110q122 -146 370 -436q46 56 180 228q34 -28 138 -112q-50 -62 -202 -254q62 -72 250 -290h-238q-32 38 -130 150q-72 -76 -166 -130q-92 -52 -232 -52q-104 0 -186 28q-80 30 -136 84q-54 50 -80 120q-28 68 -28 146zM272 356q0 -92 62 -154 q60 -60 180 -60q94 0 158 42q64 40 116 102q-106 122 -322 368q-106 -76 -150 -142t-44 -156z" />
<glyph unicode="'" horiz-adv-x="414" d="M120 912v454h176v-454h-176z" />
<glyph unicode="(" horiz-adv-x="592" d="M128 626q0 150 24 280q22 130 54 234q32 106 68 184q36 76 62 122h180q-34 -60 -66 -144q-34 -84 -60 -188q-28 -104 -46 -226q-16 -124 -16 -262q0 -134 16 -256q18 -124 46 -228q26 -104 60 -188q32 -84 66 -144h-180q-26 46 -62 122t-68 180t-54 236q-24 130 -24 278z " />
<glyph unicode=")" horiz-adv-x="592" d="M80 -190q32 60 66 144q32 84 60 188q26 104 44 228q18 122 18 256q0 138 -18 262q-18 122 -44 226q-28 104 -60 188q-34 84 -66 144h178q28 -46 62 -122q34 -78 66 -184q34 -104 56 -234t22 -280q0 -148 -22 -278q-22 -132 -56 -236q-32 -104 -66 -180t-62 -122h-178z " />
<glyph unicode="*" horiz-adv-x="1026" d="M128 924q64 34 256 138q-64 32 -256 134q20 32 74 130q62 -40 248 -158q-2 74 -12 294h150q-2 -74 -10 -294q62 40 246 158q18 -34 72 -130q-64 -34 -256 -134q64 -36 256 -138q-18 -32 -72 -130q-62 40 -246 156q2 -72 10 -292h-150q4 74 12 292q-62 -38 -248 -156 q-18 34 -74 130z" />
<glyph unicode="+" d="M150 578v158h330v322h160v-322h328v-158h-328v-322h-160v322h-330z" />
<glyph unicode="," horiz-adv-x="524" d="M136 -240l104 240h-82v226h232v-224q-36 -60 -142 -242h-112z" />
<glyph unicode="-" horiz-adv-x="898" d="M150 486v176h600v-176h-600z" />
<glyph unicode="." horiz-adv-x="524" d="M144 0v230h232v-230h-232z" />
<glyph unicode="/" horiz-adv-x="832" d="M50 -32q138 358 546 1434h182q-136 -358 -540 -1434h-188z" />
<glyph unicode="0" horiz-adv-x="1318" d="M118 686q0 334 144 524q146 190 400 190q164 0 286 -84t188 -248t66 -388q0 -334 -146 -524q-144 -190 -400 -190q-162 0 -284 84q-122 86 -188 248q-66 164 -66 388zM310 686q0 -266 90 -410q88 -142 256 -142q170 0 262 140t92 406t-90 410q-90 142 -258 142 q-170 0 -262 -140q-90 -140 -90 -406z" />
<glyph unicode="1" horiz-adv-x="858" d="M54 1154q96 54 388 212h168v-1366h-188v1162q-72 -38 -292 -156q-18 38 -76 148z" />
<glyph unicode="2" horiz-adv-x="1066" d="M76 1138q162 262 470 262q118 0 210 -44t144 -126q52 -86 52 -194q0 -126 -74 -228q-72 -104 -262 -240q-130 -94 -200 -158q-68 -66 -98 -122t-30 -120h696v-168h-890v128q0 142 86 268q86 124 284 262q168 122 232 200q64 76 64 164q0 96 -60 154q-60 56 -164 56 q-200 0 -320 -192q-48 32 -140 98z" />
<glyph unicode="3" horiz-adv-x="1096" d="M42 126l104 136q84 -70 160 -100q78 -28 168 -28q142 0 230 76q88 78 88 202t-80 194q-80 72 -212 72q-82 0 -168 -30q-18 30 -52 90q108 116 432 460h-584v168h800v-144q-94 -102 -378 -408h12q122 -6 216 -56q94 -52 148 -144q52 -92 52 -214q0 -120 -60 -218 q-62 -98 -174 -158q-112 -58 -258 -58q-130 0 -236 38q-106 36 -208 122z" />
<glyph unicode="4" horiz-adv-x="1158" d="M56 280v40v112q162 234 648 934h192v-922h168v-164h-168v-280h-176v280h-664zM246 444h474v680q-120 -170 -474 -680z" />
<glyph unicode="5" horiz-adv-x="1080" d="M50 122q28 36 106 140q142 -128 308 -128q142 0 226 78q82 76 82 208q0 134 -74 208t-210 74q-140 0 -256 -68q-28 22 -86 64q28 166 106 668h654v-168h-520l-56 -392q36 18 90 28q54 12 108 12q200 0 316 -116q118 -118 118 -312q0 -202 -134 -328q-134 -124 -354 -124 q-234 0 -424 156z" />
<glyph unicode="6" horiz-adv-x="1166" d="M118 612q0 242 66 420q68 176 200 272q130 96 312 96q156 0 298 -82q-24 -50 -74 -150q-106 70 -224 70q-164 0 -264 -126t-122 -356q140 116 338 116q190 0 302 -122q114 -120 114 -326q0 -130 -56 -234t-160 -164q-104 -58 -242 -58q-236 0 -362 168t-126 476zM304 594 q0 -226 80 -344q80 -120 226 -120q120 0 196 80q74 80 74 208q0 140 -72 218t-198 78q-88 0 -162 -28q-74 -30 -144 -92z" />
<glyph unicode="7" horiz-adv-x="1008" d="M46 1198v168h898v-158q-186 -310 -308 -586q-124 -276 -230 -622h-198q202 650 540 1198h-702z" />
<glyph unicode="8" horiz-adv-x="1192" d="M102 358q0 254 298 378q-122 56 -178 132t-56 182q0 152 124 252q122 98 312 98q118 0 214 -42q96 -44 154 -124t58 -180q0 -96 -62 -176t-182 -140q144 -48 226 -146q82 -100 82 -230q0 -114 -60 -202q-62 -90 -174 -144q-110 -50 -256 -50q-226 0 -362 108 q-138 108 -138 284zM294 368q0 -110 84 -178q86 -70 220 -70q136 0 220 68q86 68 86 174q0 206 -310 294q-154 -46 -228 -118q-72 -72 -72 -170zM352 1044q0 -82 62 -146q64 -64 180 -100q124 42 186 104q62 64 62 140q0 90 -68 148t-174 58q-112 0 -180 -56t-68 -148z" />
<glyph unicode="9" horiz-adv-x="1158" d="M100 942q0 136 54 238q54 104 158 162q102 58 240 58q240 0 364 -168t124 -488q0 -372 -150 -576q-152 -202 -424 -202q-170 0 -310 90q24 50 74 150q118 -78 242 -78q162 0 258 124q96 122 118 356q-128 -112 -328 -110q-194 0 -308 120q-112 118 -112 324zM282 952 q0 -138 72 -218q70 -78 196 -78q88 0 160 28t144 88v20q0 218 -76 332q-78 114 -226 114q-122 0 -196 -78q-74 -80 -74 -208z" />
<glyph unicode=":" horiz-adv-x="524" d="M144 0v230h232v-230h-232zM144 726v228h232v-228h-232z" />
<glyph unicode=";" horiz-adv-x="524" d="M126 -240l104 240h-82v226h230v-224q-34 -60 -140 -242h-112zM144 726v228h232v-228h-232z" />
<glyph unicode="&#x3c;" d="M144 596v118q188 100 752 394q16 -34 70 -140q-152 -78 -606 -312q152 -80 606 -314q-18 -34 -70 -140q-188 100 -752 394z" />
<glyph unicode="=" d="M150 392v160h818v-160h-818zM150 744v160h818v-160h-818z" />
<glyph unicode="&#x3e;" d="M150 342q152 78 604 314q-152 78 -604 312q18 36 68 140q188 -98 750 -394v-118q-186 -98 -750 -394q-16 36 -68 140z" />
<glyph unicode="?" horiz-adv-x="1036" d="M82 1202q18 24 54 58q34 34 88 66q52 30 124 52t164 22q100 0 178 -26q78 -28 132 -76q56 -48 82 -110q28 -62 28 -132q0 -58 -14 -104q-14 -48 -42 -88q-26 -40 -64 -74q-40 -34 -90 -70q-40 -32 -74 -58q-32 -24 -56 -56q-22 -30 -34 -68t-12 -90v-56h-184v58 q0 112 46 200q46 86 150 164q32 24 66 50q32 24 60 54q28 28 44 62q16 36 16 76q0 80 -64 128t-168 48q-56 0 -104 -16q-48 -14 -88 -34q-38 -22 -66 -46q-30 -26 -48 -46q-42 38 -124 112zM342 0v224h226v-224h-226z" />
<glyph unicode="@" horiz-adv-x="1958" d="M98 576q0 208 74 364t196 260q124 104 282 152q158 50 332 50q186 0 346 -50q162 -48 280 -150q118 -98 186 -248q68 -148 68 -348q0 -188 -42 -310q-44 -124 -108 -198q-62 -72 -134 -102q-74 -28 -134 -28q-34 0 -68 6q-32 8 -64 24q-28 14 -50 42q-22 26 -36 66 q-82 -84 -170 -110q-86 -28 -176 -28q-54 0 -112 18q-56 16 -104 54q-48 36 -78 94q-32 56 -32 136q0 154 108 246q108 94 312 94q76 0 134 -4q60 -4 94 -8v34q0 98 -62 144q-62 48 -170 48q-110 0 -174 -30q-66 -30 -108 -60q-30 42 -88 126q26 22 62 44t82 40 q48 16 108 28t140 12q178 0 284 -88t106 -256v-410q0 -58 26 -82q26 -22 64 -22q36 0 74 24q38 26 70 82q32 58 54 152q20 94 20 228q0 168 -58 290q-58 120 -158 198q-98 78 -228 114t-270 36q-122 0 -246 -34t-224 -112q-100 -80 -164 -208q-66 -126 -66 -310 q0 -104 22 -186t54 -144t68 -104t68 -70l-112 -112q-48 36 -98 94q-48 56 -88 134q-40 76 -66 172q-26 94 -26 206zM736 276q0 -72 52 -112q52 -42 148 -42q50 0 98 18q48 16 86 44q38 32 60 70q22 40 22 82v114q-20 6 -76 10q-54 4 -142 4q-72 0 -122 -18q-48 -18 -78 -46 q-26 -26 -38 -60q-10 -34 -10 -64z" />
<glyph unicode="A" horiz-adv-x="1312" d="M20 0q134 342 534 1366h202q134 -342 534 -1366h-218q-36 96 -142 382h-562q-34 -96 -142 -382h-206zM426 546h444q-56 150 -222 600q-54 -150 -222 -600z" />
<glyph unicode="B" horiz-adv-x="1208" d="M156 0v854v512h462q106 0 184 -28q78 -26 130 -74t76 -110q26 -64 26 -136q0 -66 -24 -118q-24 -54 -58 -92q-32 -36 -72 -58t-70 -28q40 -4 92 -24t98 -58q44 -40 76 -102q30 -64 30 -154q0 -112 -40 -184t-108 -118q-70 -44 -164 -64q-94 -18 -200 -18h-438zM346 170 h238q54 0 110 6q58 6 106 28t78 66q32 44 32 122q0 74 -30 120t-76 72t-102 36q-54 10 -106 10h-250v-460zM346 798h244q44 0 90 10t82 34q38 26 60 66q22 38 22 92q0 62 -22 100t-60 60q-36 22 -82 30q-46 6 -90 6h-244v-398z" />
<glyph unicode="C" horiz-adv-x="1386" d="M98 678q0 150 50 282q52 130 140 228q90 98 216 154q128 58 280 58q110 0 196 -28q84 -26 148 -66q66 -40 112 -88t74 -90q-46 -40 -138 -118q-24 36 -60 72q-34 38 -80 70q-46 30 -108 50q-62 22 -142 22q-114 0 -202 -44t-152 -116q-62 -74 -94 -172q-34 -100 -34 -210 q0 -112 36 -208q34 -98 94 -170q62 -72 150 -112t196 -40q92 0 160 24q66 24 112 56t76 66t50 56q46 -38 136 -114q-22 -38 -68 -84q-48 -46 -116 -90q-66 -42 -154 -70t-196 -28q-152 0 -276 52q-126 54 -216 148q-88 96 -140 226q-50 130 -50 284z" />
<glyph unicode="D" horiz-adv-x="1464" d="M156 0v854v512h456q162 0 298 -40q138 -40 234 -126q98 -84 154 -212q56 -130 56 -308q0 -172 -56 -300t-154 -212q-96 -86 -234 -128q-138 -40 -300 -40h-454zM352 176h254q256 0 398 126t142 374q0 250 -136 382q-138 132 -410 132h-248v-1014z" />
<glyph unicode="E" horiz-adv-x="1154" d="M156 0v854v512h860v-174h-664v-398h500v-176h-500v-442h712v-176h-908z" />
<glyph unicode="F" horiz-adv-x="1082" d="M156 0v854v512h858v-176h-662v-418h504v-174h-504v-598h-196z" />
<glyph unicode="G" horiz-adv-x="1476" d="M100 680q0 150 50 282q50 130 140 228q92 96 218 152q124 58 278 58q110 0 194 -26q86 -26 150 -66q66 -40 112 -86q44 -48 76 -92q-48 -40 -140 -118q-26 36 -60 72q-36 38 -82 68q-46 32 -108 52q-60 20 -136 20q-114 0 -204 -42q-90 -44 -154 -118q-60 -72 -94 -172 q-36 -100 -36 -210q0 -120 38 -218q36 -96 104 -168q66 -72 156 -112t198 -40q120 0 202 28q84 28 142 74v278h-290v170h480v-544q-40 -36 -90 -68q-50 -34 -116 -58q-66 -26 -148 -42q-84 -14 -186 -14q-160 0 -288 54t-218 148q-90 96 -140 226q-48 130 -48 284z" />
<glyph unicode="H" horiz-adv-x="1452" d="M156 0v854v512h196v-572h748v572h196v-1366h-196v618h-748v-618h-196z" />
<glyph unicode="I" horiz-adv-x="506" d="M156 0v854v512h196v-1366h-196z" />
<glyph unicode="J" horiz-adv-x="1010" d="M30 154q34 30 138 122q58 -68 120 -98q60 -32 144 -32q48 0 92 16q42 16 74 48q34 34 52 86q18 50 18 122v948h196v-966q0 -118 -34 -200q-36 -82 -94 -136q-58 -52 -136 -76q-78 -22 -164 -22q-152 0 -248 52q-96 54 -158 136z" />
<glyph unicode="K" horiz-adv-x="1234" d="M156 0v854v512h194v-622q144 156 572 622h224q-126 -140 -506 -558l568 -808h-234q-118 168 -468 670q-40 -42 -156 -168v-502h-194z" />
<glyph unicode="L" horiz-adv-x="1122" d="M156 0v854v512h196v-1192h712v-174h-908z" />
<glyph unicode="M" horiz-adv-x="1610" d="M138 0q16 342 64 1366h190q104 -178 416 -710q104 176 416 710h184q14 -342 62 -1366h-192q-12 262 -46 1048q-96 -160 -384 -646h-98q-94 160 -380 638q-10 -260 -46 -1040h-186z" />
<glyph unicode="N" horiz-adv-x="1448" d="M156 0v854v512h198q186 -266 746 -1068v1068h192v-1366h-196q-186 268 -748 1070v-1070h-192z" />
<glyph unicode="O" horiz-adv-x="1594" d="M100 684q0 150 54 280t146 228q92 96 220 152t278 56q146 0 274 -56t222 -152q96 -98 148 -228q54 -130 54 -280t-54 -280q-52 -132 -148 -228q-94 -98 -222 -154t-274 -56q-148 0 -276 56t-220 154q-94 96 -148 228t-54 280zM304 686q0 -110 36 -206t100 -170t154 -116 q90 -44 204 -44q112 0 204 44q90 42 154 116q66 74 100 170q34 98 34 206q0 112 -34 208q-34 98 -100 170q-64 74 -156 116q-90 44 -202 44q-114 0 -204 -44q-90 -42 -154 -116q-64 -72 -100 -170q-36 -96 -36 -208z" />
<glyph unicode="P" horiz-adv-x="1160" d="M156 0v854v512h432q140 0 230 -38q92 -40 144 -100q56 -60 78 -132q22 -74 22 -144q0 -102 -36 -180q-34 -78 -98 -130q-60 -52 -144 -78q-86 -28 -186 -28h-248v-536h-194zM350 704h246q126 0 196 66q68 64 68 178q0 116 -70 184q-70 66 -194 66h-246v-494z" />
<glyph unicode="Q" horiz-adv-x="1594" d="M98 682q0 150 54 282q54 130 146 228q94 96 222 152t278 56q146 0 274 -56t222 -152q96 -98 148 -230q54 -130 54 -280q0 -166 -66 -306q-64 -140 -176 -240l162 -198q-30 -24 -120 -102q-42 52 -172 210q-72 -38 -154 -60q-82 -20 -172 -20q-148 0 -276 56 q-130 56 -224 152q-92 96 -146 228q-54 130 -54 280zM304 686q0 -110 36 -208q36 -96 100 -172q64 -74 154 -116q90 -44 204 -44q112 0 208 46q-56 70 -170 210q30 26 122 104q44 -54 176 -218q74 72 114 176t40 222q0 112 -34 208q-36 98 -100 170t-154 116t-202 44 q-114 0 -204 -44t-154 -116t-100 -170q-36 -96 -36 -208z" />
<glyph unicode="R" horiz-adv-x="1208" d="M156 0v854v512h436q130 0 220 -36q92 -36 148 -92t82 -128q24 -72 24 -144q0 -132 -60 -232q-62 -102 -190 -150q106 -194 320 -584h-224q-72 140 -290 560h-276v-560h-190zM346 726h262q128 0 194 62q64 64 64 170q0 114 -70 176q-68 62 -192 62h-258v-470z" />
<glyph unicode="S" horiz-adv-x="1192" d="M76 206q34 30 140 126q28 -34 64 -68q34 -32 80 -60q46 -26 102 -42q54 -18 120 -18q136 0 210 62q76 62 76 168q0 112 -86 168t-246 90q-88 18 -160 52t-126 82q-50 50 -80 114q-28 64 -28 146q0 76 28 144q30 68 86 118t144 82q86 30 198 30q100 0 174 -20 q72 -22 124 -52q50 -32 80 -64q32 -32 48 -54q-44 -40 -130 -120l-38 38t-64 46q-36 22 -86 38q-50 14 -116 14t-112 -16q-48 -18 -78 -46q-32 -28 -46 -62q-14 -36 -14 -70q0 -50 22 -86t62 -66q40 -26 102 -46q60 -18 138 -36q76 -20 148 -50q74 -28 130 -80 q58 -50 90 -122q34 -74 34 -178q0 -88 -36 -160q-38 -74 -102 -128q-64 -56 -152 -84q-88 -30 -190 -30q-96 0 -174 22q-80 22 -146 58q-64 34 -112 76t-78 84z" />
<glyph unicode="T" horiz-adv-x="1272" d="M48 1194v44v128h1176v-172h-488v-1194h-198v1194h-490z" />
<glyph unicode="U" horiz-adv-x="1378" d="M144 520v530v316h198v-798q0 -94 16 -170q18 -76 58 -132t106 -84q66 -30 168 -30q100 0 168 30q66 28 106 84t56 132t16 170v798h196v-846q0 -118 -32 -218q-32 -102 -100 -176q-66 -76 -168 -118t-242 -42q-138 0 -242 42q-102 42 -170 118q-68 74 -100 176 q-34 100 -34 218z" />
<glyph unicode="V" horiz-adv-x="1298" d="M20 1366h220q104 -280 416 -1122q104 280 416 1122h206q-132 -342 -528 -1366h-200q-134 342 -530 1366z" />
<glyph unicode="W" horiz-adv-x="1798" d="M34 1366h218q66 -276 262 -1102q74 266 296 1062h190q74 -266 292 -1060q66 274 262 1100h206q-92 -342 -368 -1366h-208q-72 252 -286 1010q-72 -252 -292 -1010h-206q-92 342 -366 1366z" />
<glyph unicode="X" horiz-adv-x="1224" d="M18 0q120 176 478 706q-112 166 -450 660h236q84 -124 332 -498q82 124 328 498h216q-110 -164 -438 -654q120 -178 484 -712h-236q-90 138 -366 552q-92 -138 -366 -552h-218z" />
<glyph unicode="Y" horiz-adv-x="1182" d="M18 1366h220q90 -146 356 -584q88 146 356 584h210q-118 -188 -472 -756v-610h-200v610q-116 188 -470 756z" />
<glyph unicode="Z" horiz-adv-x="1314" d="M104 0v172q212 256 850 1020h-810v174h1050v-174q-210 -254 -840 -1018h854v-174h-1104z" />
<glyph unicode="_" horiz-adv-x="1024" d="M0 -144h1024v-104h-1024v74v30z" />
<glyph unicode="`" horiz-adv-x="914" d="M276 1386h204q28 -70 110 -278h-154q-40 70 -160 278z" />
<glyph unicode="a" horiz-adv-x="1022" d="M72 270q0 154 108 246t308 92q34 0 72 -2q36 -2 70 -4q32 -2 56 -4q26 -2 34 -4v36q0 106 -64 150q-64 46 -176 46q-108 0 -170 -28q-64 -30 -108 -62l-84 126q24 20 58 42q34 20 82 38q46 16 106 28t138 12q184 0 290 -90q104 -90 104 -252v-556q0 -50 2 -84h-170 q-2 28 -6 114q-52 -72 -138 -106q-88 -34 -182 -34q-58 0 -116 14q-60 16 -108 52t-76 92q-30 56 -30 138zM252 276q0 -78 54 -118q52 -38 148 -38q52 0 100 18t86 48q36 30 58 72q22 40 22 84v108q-8 4 -30 6q-24 2 -56 6q-30 2 -64 2q-34 2 -68 2q-78 0 -126 -18t-76 -46 q-28 -26 -38 -62q-10 -34 -10 -64z" />
<glyph unicode="b" horiz-adv-x="1122" d="M128 32v834v500h184v-518q14 18 40 40q24 24 62 42q36 20 84 32q48 14 108 14q106 0 186 -40q82 -38 136 -104q56 -66 84 -156t28 -194q0 -112 -38 -206q-40 -94 -110 -162q-70 -66 -168 -106q-100 -38 -218 -38q-116 0 -218 20q-100 18 -160 42zM310 158q28 -8 70 -18 t124 -10q80 0 144 26t110 72q44 46 70 110q24 64 24 142q0 64 -16 126q-14 60 -50 106q-32 46 -84 74t-124 28q-68 0 -118 -24t-84 -62t-50 -88t-16 -104v-114v-264z" />
<glyph unicode="c" horiz-adv-x="1008" d="M82 478q0 104 38 196q36 92 102 160q66 70 158 110t202 40q122 0 214 -44t156 -116q-40 -40 -120 -118q-44 54 -104 84q-62 32 -146 32q-74 0 -132 -28t-98 -76t-62 -110q-22 -64 -22 -130q0 -68 22 -130q22 -60 62 -110q40 -48 98 -76t132 -28q84 0 150 32q68 32 110 84 q38 -40 112 -120q-64 -72 -156 -116q-94 -44 -216 -44q-116 0 -208 38q-94 40 -158 104q-64 68 -100 162q-34 94 -34 204z" />
<glyph unicode="d" horiz-adv-x="1126" d="M80 464q0 134 48 232q46 96 118 160q74 62 158 90q84 30 162 30q100 0 158 -26q58 -24 90 -38v454h184v-1270q0 -46 2 -96h-182q0 30 -4 120q-12 -10 -34 -36q-24 -28 -62 -52q-40 -24 -92 -42q-52 -20 -122 -20q-90 0 -168 36q-78 34 -136 98q-56 64 -88 156 q-32 90 -32 204zM268 462q0 -70 16 -130q18 -60 52 -106q32 -44 84 -70t124 -26t124 28q52 26 82 66q32 40 48 88t16 88v342q-22 16 -76 44q-56 28 -158 28q-68 0 -124 -26q-56 -24 -98 -68q-44 -46 -66 -112q-24 -64 -24 -146z" />
<glyph unicode="e" horiz-adv-x="1096" d="M80 482q0 104 36 196q34 92 98 158q62 68 150 106q86 40 190 40q124 0 212 -48q88 -46 144 -126q58 -78 84 -178t26 -208h-752q2 -62 28 -116t70 -92q42 -40 98 -62q54 -24 116 -24q122 0 198 42q78 40 112 80q36 -38 104 -112q-16 -18 -48 -46q-34 -28 -84 -56 q-54 -26 -124 -46t-160 -20q-112 0 -204 38t-158 104q-64 68 -100 162t-36 208zM268 560h562q-8 110 -78 188q-70 76 -198 76q-66 0 -118 -22t-88 -58q-36 -38 -58 -86q-20 -48 -22 -98z" />
<glyph unicode="f" horiz-adv-x="674" d="M26 800v96v56h174v78q0 96 26 168q28 70 74 114q46 46 106 68q58 20 124 20q76 0 150 -22q72 -24 134 -82q-32 -40 -94 -118q-74 62 -160 62q-80 0 -128 -50q-48 -52 -48 -176v-62h272v-152h-272v-800h-184v800h-174z" />
<glyph unicode="g" horiz-adv-x="1120" d="M80 464q0 112 40 204q38 94 108 162t170 106q98 40 218 40q118 0 218 -22q100 -20 160 -44v-910q0 -208 -118 -320q-120 -114 -338 -114q-144 0 -230 32t-140 72q28 46 86 136q48 -34 116 -58q68 -22 166 -22q138 0 206 76q66 76 66 198v118q-14 -14 -36 -34 q-24 -22 -60 -42q-36 -18 -84 -34q-50 -16 -114 -16q-104 0 -186 36q-80 36 -136 98t-84 150q-28 86 -28 188zM268 466q0 -66 16 -122q14 -56 50 -100q34 -44 84 -68q52 -24 126 -24q66 0 118 20q50 20 82 54q34 34 50 76t16 88v394q-18 6 -62 18t-132 12q-78 0 -140 -26 q-64 -26 -110 -72t-72 -110q-26 -62 -26 -140z" />
<glyph unicode="h" horiz-adv-x="1112" d="M126 0v854v512h180v-556q20 26 46 54q26 30 66 54q38 24 90 40q52 18 116 18q186 0 276 -110q92 -108 92 -296v-570h-184v558q0 132 -58 194q-58 64 -162 64q-80 0 -134 -34q-54 -32 -86 -86q-30 -50 -44 -118q-14 -66 -14 -136v-442h-184z" />
<glyph unicode="i" horiz-adv-x="454" d="M122 1122v52v154h208v-206h-208zM136 0v596v356h184v-952h-184z" />
<glyph unicode="j" horiz-adv-x="454" d="M-184 -334q18 32 74 126q26 -16 54 -30q26 -12 66 -12q72 0 98 68q28 70 28 222v912h184v-964q0 -78 -12 -150q-12 -70 -42 -126t-88 -88q-58 -34 -148 -34q-78 0 -130 26q-52 24 -84 50zM122 1122v52v154h208v-206h-208z" />
<glyph unicode="k" horiz-adv-x="1000" d="M126 0v854v512h184v-806l400 392h220q-90 -88 -362 -352l416 -600h-220q-80 120 -324 478q-32 -32 -130 -128v-350h-184z" />
<glyph unicode="l" horiz-adv-x="438" d="M128 0v854v512h184v-1366h-184z" />
<glyph unicode="m" horiz-adv-x="1740" d="M126 952h176q0 -36 4 -144q16 26 44 56q26 30 64 54q36 24 86 40q52 18 116 18q112 0 184 -44t112 -130q58 70 142 122q82 52 206 52q184 0 272 -110t88 -296v-570h-184v558q0 132 -52 194q-54 64 -152 64q-58 0 -106 -24t-86 -64q-34 -38 -54 -90q-18 -52 -18 -110v-528 h-186v558q0 132 -52 194q-52 64 -150 64q-76 0 -128 -34q-52 -32 -84 -86q-30 -50 -44 -118q-12 -68 -12 -136v-442h-184v854q0 48 -2 98z" />
<glyph unicode="n" horiz-adv-x="1114" d="M126 952h176q0 -36 4 -144q20 26 46 56t66 54q38 24 90 40q52 18 118 18q188 0 278 -110q88 -108 88 -296v-570h-184v558q0 132 -56 194q-58 64 -162 64q-80 0 -134 -34q-54 -32 -86 -86q-30 -50 -44 -118q-14 -66 -14 -136v-442h-184v854q0 48 -2 98z" />
<glyph unicode="o" horiz-adv-x="1170" d="M82 478q0 104 38 194q38 92 104 160q66 72 158 112t204 40q110 0 202 -40t158 -112q68 -68 106 -158q38 -92 38 -196t-38 -196t-106 -162q-66 -70 -158 -110t-202 -40q-112 0 -204 40t-158 110t-104 162t-38 196zM268 478q0 -68 22 -128q22 -62 62 -110q42 -50 102 -80 q58 -30 132 -30t134 30q58 30 98 78q42 50 64 112t22 128q0 62 -22 126q-22 62 -64 110q-42 50 -100 80q-60 30 -132 30q-74 0 -134 -30t-100 -78t-62 -110t-22 -128z" />
<glyph unicode="p" horiz-adv-x="1142" d="M126 952h176q0 -34 4 -136q14 18 42 46q28 26 68 50q40 26 92 44t124 18q110 0 190 -42q82 -42 134 -110q54 -70 80 -160q26 -92 26 -190q0 -130 -44 -224t-116 -156q-70 -60 -158 -92q-88 -30 -170 -30q-96 0 -156 20q-58 20 -108 42v-442h-182v1264q0 48 -2 98z M310 208q32 -28 94 -52q60 -26 154 -26q68 0 126 26q60 26 100 72q42 46 66 108q22 62 22 136q0 70 -16 130q-14 62 -48 110q-34 46 -86 74q-54 28 -132 28q-98 0 -168 -54q-70 -56 -98 -160q-10 -32 -12 -70t-2 -80v-242z" />
<glyph unicode="q" horiz-adv-x="1122" d="M80 464q0 112 40 204q38 94 108 162t170 106q98 40 218 40q118 0 216 -22q100 -20 160 -44v-1320h-184v504q-8 -10 -28 -30q-22 -18 -58 -40q-34 -22 -82 -38t-112 -16q-112 0 -194 40q-84 38 -142 104q-56 68 -84 158t-28 192zM268 466q0 -66 16 -126q14 -60 50 -106 q34 -46 84 -74q52 -30 126 -30q70 0 120 22q48 20 80 56q34 34 50 80t16 96v400q-18 6 -62 18t-132 12q-164 0 -256 -96q-92 -94 -92 -252z" />
<glyph unicode="r" horiz-adv-x="744" d="M126 952h176q0 -38 4 -152q16 24 44 54q26 28 66 52q38 26 88 44q48 18 114 18q30 0 56 -6q26 -4 48 -12q-12 -58 -40 -172q-36 14 -94 14q-60 0 -110 -22t-86 -62q-38 -40 -60 -94q-20 -54 -20 -112v-502h-184v860q0 44 -2 92z" />
<glyph unicode="s" horiz-adv-x="966" d="M76 118q28 30 112 122q52 -50 124 -82q72 -30 166 -30q90 0 152 28q62 30 62 94q0 32 -12 56q-14 24 -46 42q-32 20 -84 34q-52 16 -130 34q-54 12 -110 32q-54 22 -96 56q-44 32 -70 80t-26 116q0 70 30 122q32 52 84 88q56 36 122 54q66 20 138 20q122 0 208 -32 t152 -90q-34 -42 -100 -126q-42 38 -108 64q-64 26 -150 26q-88 0 -142 -28t-54 -94q0 -60 72 -90q70 -30 184 -56q70 -16 126 -38q58 -22 104 -56q42 -34 68 -82q28 -50 28 -120q0 -72 -34 -126q-32 -54 -88 -90q-56 -38 -128 -56q-70 -20 -150 -20q-270 0 -404 148z" />
<glyph unicode="t" horiz-adv-x="786" d="M38 800v96v56h170v312h184v-312h280v-152h-280v-470q0 -114 36 -158t102 -44q54 0 88 18q36 16 70 48q28 -36 84 -112q-60 -58 -122 -82q-62 -26 -148 -26q-152 0 -222 82q-72 80 -72 256v488h-170z" />
<glyph unicode="u" horiz-adv-x="1110" d="M120 382v570h184v-560q0 -134 56 -194q56 -62 160 -62q80 0 132 34q52 32 84 86q34 50 48 118q14 66 14 136v442h184v-856q0 -46 2 -96h-176q-2 36 -8 142q-16 -26 -44 -54q-28 -30 -66 -54q-40 -22 -90 -38t-118 -16q-186 0 -274 108q-88 106 -88 294z" />
<glyph unicode="v" horiz-adv-x="1028" d="M12 952h212l296 -744l296 744h198l-408 -952h-184q-102 238 -410 952z" />
<glyph unicode="w" horiz-adv-x="1478" d="M24 952h200q54 -182 214 -728q58 182 230 728h156q58 -184 232 -734q52 184 208 734h190q-78 -238 -316 -952h-182q-56 166 -220 666q-56 -166 -220 -666h-172z" />
<glyph unicode="x" horiz-adv-x="998" d="M16 0q92 124 368 492q-84 116 -342 460h230q58 -78 230 -314q56 78 226 314h204q-82 -112 -332 -446q94 -126 378 -506h-230q-66 90 -266 360q-64 -90 -258 -360h-208z" />
<glyph unicode="y" horiz-adv-x="1028" d="M18 952h212q76 -180 306 -720l272 720h200q-96 -232 -382 -928q-26 -64 -54 -144t-68 -150t-100 -118q-60 -46 -150 -46q-72 0 -120 20q-50 20 -86 52q26 44 82 130q22 -18 48 -34q28 -14 66 -14q34 0 56 14q24 14 44 44q18 30 36 70q18 42 40 98q8 22 24 62 q-106 236 -426 944z" />
<glyph unicode="z" horiz-adv-x="974" d="M106 0v144q136 164 544 654h-524v154h752v-146q-140 -164 -556 -652h560v-154h-776z" />
<glyph unicode="&#xa3;" d="M72 618v156h150v202q0 196 118 310t318 114q104 0 194 -34q88 -36 172 -112q-40 -44 -118 -130q-60 54 -120 80q-58 26 -128 26q-120 0 -186 -76q-66 -74 -66 -216v-164h448v-156h-448v-448h630v-170h-814v618h-150z" />
<glyph unicode="&#xa9;" horiz-adv-x="1594" d="M100 684q0 150 54 280q52 130 146 228q92 96 220 152t278 56q146 0 274 -56t224 -152q94 -98 146 -228t54 -280q-2 -150 -54 -282q-52 -130 -148 -226q-94 -98 -222 -154t-274 -56q-148 0 -276 56t-220 154q-94 96 -150 228q-52 132 -52 280zM304 686q2 -110 36 -206 q36 -98 100 -170q64 -74 154 -118q90 -42 204 -42q112 0 202 42q94 44 158 118t98 170q34 98 34 206q0 110 -34 208q-36 98 -100 170q-64 74 -156 118q-92 42 -202 42q-114 0 -204 -42q-90 -44 -154 -118q-66 -72 -100 -170t-36 -208zM448 686q0 74 26 142q28 64 76 114 q46 48 112 78q64 28 144 28h4q84 0 148 -30q66 -32 112 -84q-30 -28 -86 -84q-32 38 -76 60q-42 22 -102 22q-54 0 -96 -20t-70 -54t-44 -78q-14 -44 -14 -94q0 -46 14 -90q16 -44 44 -80q30 -34 72 -54q40 -20 94 -20q60 0 108 22q46 24 76 60q28 -28 80 -84 q-44 -52 -110 -84q-66 -30 -154 -30q-84 0 -150 26t-112 76q-46 46 -70 114q-26 66 -26 144z" />
<glyph unicode="&#xad;" horiz-adv-x="898" d="M150 486v176h600v-176h-600z" />
<glyph unicode="&#xb7;" horiz-adv-x="518" d="M144 550v228h232v-228h-232z" />
<glyph unicode="&#x2000;" horiz-adv-x="731" />
<glyph unicode="&#x2001;" horiz-adv-x="1462" />
<glyph unicode="&#x2002;" horiz-adv-x="731" />
<glyph unicode="&#x2003;" horiz-adv-x="1462" />
<glyph unicode="&#x2004;" horiz-adv-x="487" />
<glyph unicode="&#x2005;" horiz-adv-x="365" />
<glyph unicode="&#x2006;" horiz-adv-x="243" />
<glyph unicode="&#x2007;" horiz-adv-x="243" />
<glyph unicode="&#x2008;" horiz-adv-x="182" />
<glyph unicode="&#x2009;" horiz-adv-x="292" />
<glyph unicode="&#x200a;" horiz-adv-x="81" />
<glyph unicode="&#x2010;" horiz-adv-x="898" d="M150 486v176h600v-176h-600z" />
<glyph unicode="&#x2011;" horiz-adv-x="898" d="M150 486v176h600v-176h-600z" />
<glyph unicode="&#x2012;" horiz-adv-x="898" d="M150 486v176h600v-176h-600z" />
<glyph unicode="&#x2013;" horiz-adv-x="1024" d="M0 486v122v54h1024v-176h-1024z" />
<glyph unicode="&#x2014;" horiz-adv-x="2048" d="M0 486v122v54h2048v-176h-2048z" />
<glyph unicode="&#x2018;" horiz-adv-x="488" d="M112 958q26 102 106 406h144q-10 -102 -42 -406h-208z" />
<glyph unicode="&#x2019;" horiz-adv-x="488" d="M136 958q12 102 42 406h208q-26 -102 -106 -406h-144z" />
<glyph unicode="&#x201c;" horiz-adv-x="838" d="M112 958q26 102 106 406h144q-10 -102 -42 -406h-208zM458 958q28 102 110 406h142q-10 -102 -44 -406h-208z" />
<glyph unicode="&#x201d;" horiz-adv-x="838" d="M136 958q12 102 42 406h208q-26 -102 -106 -406h-144zM486 958q10 102 40 406h210q-28 -102 -110 -406h-140z" />
<glyph unicode="&#x2022;" horiz-adv-x="818" d="M154 666q0 52 20 98t56 82q34 34 80 54t100 20t98 -20q46 -20 82 -54q34 -36 56 -82q20 -46 20 -98t-20 -100q-22 -46 -56 -80q-36 -36 -82 -56q-44 -20 -98 -20q-52 0 -100 20q-46 20 -80 56q-36 34 -56 80q-20 48 -20 100z" />
<glyph unicode="&#x202f;" horiz-adv-x="292" />
<glyph unicode="&#x205f;" horiz-adv-x="365" />
<glyph unicode="&#x25fc;" horiz-adv-x="950" d="M0 0v950h950v-950h-950z" />
</font>
</defs>
</svg>
